<?xml version="1.0" encoding="UTF-8" standalone="no"?>
<!-- Created with Inkscape (http://www.inkscape.org/) -->

<svg
   xmlns:dc="http://purl.org/dc/elements/1.1/"
   xmlns:cc="http://creativecommons.org/ns#"
   xmlns:rdf="http://www.w3.org/1999/02/22-rdf-syntax-ns#"
   xmlns:svg="http://www.w3.org/2000/svg"
   xmlns="http://www.w3.org/2000/svg"
   xmlns:sodipodi="http://sodipodi.sourceforge.net/DTD/sodipodi-0.dtd"
   xmlns:inkscape="http://www.inkscape.org/namespaces/inkscape"
   width="400"
   height="150"
   viewBox="0 0 105.83333 39.687501"
   version="1.1"
   id="svg857"
   inkscape:version="0.92.3 (2405546, 2018-03-11)"
   sodipodi:docname="logo-facebook.svg"
   inkscape:export-filename="/home/morgan/Projects/Diet/wwwroot/images/logo-facebook.png"
   inkscape:export-xdpi="300.16"
   inkscape:export-ydpi="300.16">
  <defs
     id="defs851" />
  <sodipodi:namedview
     id="base"
     pagecolor="#ffffff"
     bordercolor="#666666"
     borderopacity="1.0"
     inkscape:pageopacity="0.0"
     inkscape:pageshadow="2"
     inkscape:zoom="1"
     inkscape:cx="226.54087"
     inkscape:cy="115.75062"
     inkscape:document-units="mm"
     inkscape:current-layer="layer1"
     showgrid="false"
     units="px"
     inkscape:window-width="2048"
     inkscape:window-height="1101"
     inkscape:window-x="0"
     inkscape:window-y="0"
     inkscape:window-maximized="1" />
  <metadata
     id="metadata854">
    <rdf:RDF>
      <cc:Work
         rdf:about="">
        <dc:format>image/svg+xml</dc:format>
        <dc:type
           rdf:resource="http://purl.org/dc/dcmitype/StillImage" />
        <dc:title></dc:title>
      </cc:Work>
    </rdf:RDF>
  </metadata>
  <g
     inkscape:label="Layer 1"
     inkscape:groupmode="layer"
     id="layer1"
     transform="translate(0,-257.31248)">
    <g
       transform="translate(-5.4242252,142.59142)"
       aria-label="tiny calorie counter"
       style="font-style:normal;font-variant:normal;font-weight:normal;font-stretch:normal;font-size:5.64444447px;line-height:1.25;font-family:KacstLetter;-inkscape-font-specification:KacstLetter;letter-spacing:0px;word-spacing:0px;display:inline;opacity:1;fill:#19aeff;fill-opacity:1;stroke:#19aeff;stroke-width:0.5;stroke-linecap:round;stroke-linejoin:bevel;stroke-miterlimit:4;stroke-dasharray:none;stroke-opacity:1"
       id="text836">
      <path
         inkscape:connector-curvature="0"
         d="m 24.648196,131.32069 h -0.2794 c -0.20955,1.00118 -0.527756,1.33491 -1.319389,1.38924 l -0.04657,0.24835 h 0.636411 l -0.426861,2.3361 c -0.05433,0.31044 -0.07761,0.46566 -0.07761,0.62089 0,0.40357 0.34925,0.63641 0.939095,0.63641 0.442383,0 0.8382,-0.16299 1.195211,-0.49671 l -0.170745,-0.19403 c -0.302683,0.26388 -0.535516,0.36477 -0.791633,0.36477 -0.263878,0 -0.442383,-0.18627 -0.442383,-0.45791 0,-0.13193 0.01552,-0.22507 0.08537,-0.60536 l 0.403578,-2.20416 h 1.109838 l 0.04657,-0.24835 H 24.39984 Z"
         style="font-style:italic;font-variant:normal;font-weight:normal;font-stretch:normal;font-size:7.76111126px;font-family:'URW Bookman L';-inkscape-font-specification:'URW Bookman L Italic';fill:#19aeff;stroke:#19aeff;stroke-width:0.5;stroke-linecap:round;stroke-linejoin:bevel;stroke-miterlimit:4;stroke-dasharray:none;stroke-opacity:1"
         id="path2281" />
      <path
         inkscape:connector-curvature="0"
         d="m 27.503072,135.81437 c -0.232833,0.2406 -0.395817,0.33373 -0.551039,0.33373 -0.248355,0 -0.411339,-0.18627 -0.411339,-0.45791 0,-0.0776 0.0078,-0.13194 0.01552,-0.20179 l 0.504473,-2.77847 h -0.294923 c -0.442383,0.10089 -0.5588,0.12417 -1.086555,0.17074 l -0.03881,0.22507 0.09313,0.0155 c 0.325966,0.0543 0.450144,0.16298 0.450144,0.38805 0,0.0854 0,0.12418 -0.01552,0.19403 l -0.325967,1.78505 c -0.01552,0.0854 -0.02328,0.18627 -0.02328,0.27164 0,0.48895 0.287161,0.79164 0.745067,0.79164 0.395816,0 0.760588,-0.18627 1.1176,-0.57433 z m -0.465667,-4.50144 c -0.2794,0 -0.551039,0.27164 -0.551039,0.55104 0,0.23283 0.162984,0.40357 0.380295,0.40357 0.302683,0 0.574322,-0.27164 0.574322,-0.58208 0,-0.21731 -0.170744,-0.37253 -0.403578,-0.37253 z"
         style="font-style:italic;font-variant:normal;font-weight:normal;font-stretch:normal;font-size:7.76111126px;font-family:'URW Bookman L';-inkscape-font-specification:'URW Bookman L Italic';fill:#19aeff;stroke:#19aeff;stroke-width:0.5;stroke-linecap:round;stroke-linejoin:bevel;stroke-miterlimit:4;stroke-dasharray:none;stroke-opacity:1"
         id="path2283" />
      <path
         inkscape:connector-curvature="0"
         d="m 29.057598,133.6335 c 0.589845,-0.45015 0.985661,-0.62865 1.404761,-0.62865 0.325967,0 0.535517,0.1785 0.535517,0.4579 0,0.0621 -0.01552,0.16299 -0.03104,0.27164 -0.02328,0.0854 -0.03881,0.19403 -0.03881,0.19403 l -0.225072,1.2185 c -0.06985,0.37253 -0.08537,0.51999 -0.08537,0.66745 0,0.4191 0.310444,0.73731 0.721783,0.73731 0.372533,0 0.729544,-0.18627 1.008944,-0.52776 l -0.155222,-0.17074 c -0.225072,0.22507 -0.333728,0.29492 -0.481189,0.29492 -0.20955,0 -0.372533,-0.19403 -0.372533,-0.43462 0,-0.1009 0.01552,-0.20179 0.05433,-0.42686 l 0.232833,-1.27283 c 0.09313,-0.48119 0.09313,-0.48119 0.09313,-0.64417 0,-0.45014 -0.364772,-0.72954 -0.962377,-0.72954 -0.519995,0 -1.001184,0.18626 -1.629834,0.62865 l 0.100895,-0.5588 H 28.93342 c -0.442383,0.10089 -0.5588,0.12417 -1.086555,0.17074 l -0.03881,0.22507 0.09313,0.0155 c 0.325966,0.0543 0.450144,0.16298 0.450144,0.38805 0,0.0776 -0.0078,0.12418 -0.01552,0.19403 l -0.504472,2.77848 h 0.714022 z"
         style="font-style:italic;font-variant:normal;font-weight:normal;font-stretch:normal;font-size:7.76111126px;font-family:'URW Bookman L';-inkscape-font-specification:'URW Bookman L Italic';fill:#19aeff;stroke:#19aeff;stroke-width:0.5;stroke-linecap:round;stroke-linejoin:bevel;stroke-miterlimit:4;stroke-dasharray:none;stroke-opacity:1"
         id="path2285" />
      <path
         inkscape:connector-curvature="0"
         d="m 36.656817,132.70993 h -0.714022 l -0.512233,2.81728 c -0.465667,0.4191 -1.001183,0.65969 -1.443567,0.65969 -0.294922,0 -0.504472,-0.20178 -0.504472,-0.49671 0,-0.0699 0.01552,-0.20955 0.04657,-0.37253 l 0.473427,-2.60773 h -0.294922 c -0.434622,0.10089 -0.566561,0.12417 -1.086555,0.17074 l -0.03881,0.22507 0.09313,0.0155 c 0.333728,0.0543 0.450145,0.16298 0.450145,0.38805 0,0.0776 -0.0078,0.12418 -0.01552,0.19403 l -0.294923,1.61431 c -0.01552,0.0931 -0.0388,0.35701 -0.0388,0.47343 0,0.47343 0.357011,0.76059 0.954617,0.76059 0.535516,0 1.156405,-0.27164 1.645355,-0.70626 l -0.116417,0.64417 c -0.155222,0.84596 -0.714022,1.42028 -1.389238,1.42028 -0.302684,0 -0.504473,-0.11642 -0.659695,-0.37253 -0.108655,-0.18627 -0.217311,-0.25612 -0.403578,-0.25612 -0.240594,0 -0.411339,0.13194 -0.411339,0.32597 0,0.3182 0.597606,0.58984 1.311628,0.58984 0.5588,0 1.140884,-0.18626 1.583267,-0.51999 0.395817,-0.29492 0.574322,-0.61313 0.675217,-1.17193 z"
         style="font-style:italic;font-variant:normal;font-weight:normal;font-stretch:normal;font-size:7.76111126px;font-family:'URW Bookman L';-inkscape-font-specification:'URW Bookman L Italic';fill:#19aeff;stroke:#19aeff;stroke-width:0.5;stroke-linecap:round;stroke-linejoin:bevel;stroke-miterlimit:4;stroke-dasharray:none;stroke-opacity:1"
         id="path2287" />
      <path
         inkscape:connector-curvature="0"
         d="m 42.581578,135.55825 c -0.512234,0.42687 -0.954617,0.62865 -1.373717,0.62865 -0.589845,0 -0.993422,-0.44238 -0.993422,-1.07103 0,-0.51999 0.217311,-1.21073 0.519994,-1.61431 0.263878,-0.36477 0.605367,-0.57432 0.931333,-0.57432 0.341489,0 0.582084,0.21731 0.582084,0.51999 0,0.0311 0,0.0699 -0.0078,0.11642 -0.0078,0.0543 -0.01552,0.10089 -0.01552,0.12418 0,0.15522 0.124178,0.26387 0.294923,0.26387 0.263877,0 0.450144,-0.20178 0.450144,-0.47342 0,-0.47343 -0.519994,-0.8382 -1.195211,-0.8382 -1.241778,0 -2.351617,1.1176 -2.351617,2.36714 0,0.91581 0.636411,1.54446 1.559984,1.54446 0.62865,0 1.358194,-0.32597 1.769533,-0.7994 z"
         style="font-style:italic;font-variant:normal;font-weight:normal;font-stretch:normal;font-size:7.76111126px;font-family:'URW Bookman L';-inkscape-font-specification:'URW Bookman L Italic';fill:#19aeff;stroke:#19aeff;stroke-width:0.5;stroke-linecap:round;stroke-linejoin:bevel;stroke-miterlimit:4;stroke-dasharray:none;stroke-opacity:1"
         id="path2289" />
      <path
         inkscape:connector-curvature="0"
         d="m 47.342777,132.70993 h -0.714022 l -0.06985,0.39581 c -0.263878,-0.29492 -0.675217,-0.46566 -1.125362,-0.46566 -1.202972,0 -2.2352,1.14864 -2.2352,2.47579 0,0.86148 0.535517,1.43581 1.334912,1.43581 0.605366,0 1.094316,-0.29493 1.567744,-0.9391 -0.0078,0.0543 -0.0078,0.1009 -0.0078,0.12418 0,0.17851 0.09313,0.43462 0.20955,0.58208 0.116417,0.1397 0.325967,0.23284 0.535517,0.23284 0.403577,0 0.900289,-0.26388 1.133122,-0.60537 l -0.170745,-0.16298 c -0.155222,0.18626 -0.372533,0.30268 -0.5588,0.30268 -0.225072,0 -0.411338,-0.18627 -0.411338,-0.4191 0,-0.0931 0.01552,-0.22507 0.05433,-0.42686 z m -0.845961,0.72178 c -0.201789,1.09432 -0.34925,1.54446 -0.62865,1.98684 -0.287161,0.45791 -0.776111,0.76835 -1.195211,0.76835 -0.434623,0 -0.721784,-0.35701 -0.721784,-0.877 0,-0.49671 0.178506,-1.12536 0.426861,-1.52118 0.325967,-0.51223 0.752828,-0.78387 1.226256,-0.78387 0.364772,0 0.613128,0.11642 0.892528,0.42686 z"
         style="font-style:italic;font-variant:normal;font-weight:normal;font-stretch:normal;font-size:7.76111126px;font-family:'URW Bookman L';-inkscape-font-specification:'URW Bookman L Italic';fill:#19aeff;stroke:#19aeff;stroke-width:0.5;stroke-linecap:round;stroke-linejoin:bevel;stroke-miterlimit:4;stroke-dasharray:none;stroke-opacity:1"
         id="path2291" />
      <path
         inkscape:connector-curvature="0"
         d="m 49.928317,135.82213 c -0.232834,0.20955 -0.380295,0.28716 -0.551039,0.28716 -0.248356,0 -0.426861,-0.1785 -0.426861,-0.41134 0,-0.10089 0,-0.11641 0.06985,-0.48895 l 0.776111,-4.27637 h -0.318206 c -0.34925,0.1397 -0.605366,0.20179 -1.140883,0.25612 l -0.03881,0.22507 0.116417,0.0155 c 0.372533,0.0466 0.48895,0.1397 0.48895,0.40358 0,0.0466 -0.0078,0.10866 -0.01552,0.17075 l -0.597606,3.29071 c -0.03881,0.21731 -0.06209,0.40357 -0.06209,0.52775 0,0.41134 0.310445,0.72955 0.714023,0.72955 0.426861,0 0.845961,-0.20179 1.164166,-0.56656 z"
         style="font-style:italic;font-variant:normal;font-weight:normal;font-stretch:normal;font-size:7.76111126px;font-family:'URW Bookman L';-inkscape-font-specification:'URW Bookman L Italic';fill:#19aeff;stroke:#19aeff;stroke-width:0.5;stroke-linecap:round;stroke-linejoin:bevel;stroke-miterlimit:4;stroke-dasharray:none;stroke-opacity:1"
         id="path2293" />
      <path
         inkscape:connector-curvature="0"
         d="m 52.445223,132.64008 c -0.651934,0 -1.210734,0.24059 -1.660878,0.71402 -0.411339,0.44238 -0.659695,1.05551 -0.659695,1.65312 0,0.92357 0.651934,1.54446 1.622073,1.54446 1.280583,0 2.312811,-1.03223 2.312811,-2.32058 0,-0.95461 -0.644172,-1.59102 -1.614311,-1.59102 z m -0.04657,0.32596 c 0.240595,0 0.519995,0.12418 0.651933,0.2794 0.131939,0.17075 0.217312,0.46567 0.217312,0.7994 0,0.4579 -0.162984,1.09431 -0.372534,1.46685 -0.263878,0.46566 -0.644172,0.71402 -1.094317,0.71402 -0.589844,0 -0.923572,-0.40358 -0.923572,-1.10984 0,-0.54328 0.217311,-1.20297 0.527756,-1.62207 0.263878,-0.34149 0.613128,-0.52776 0.993422,-0.52776 z"
         style="font-style:italic;font-variant:normal;font-weight:normal;font-stretch:normal;font-size:7.76111126px;font-family:'URW Bookman L';-inkscape-font-specification:'URW Bookman L Italic';fill:#19aeff;stroke:#19aeff;stroke-width:0.5;stroke-linecap:round;stroke-linejoin:bevel;stroke-miterlimit:4;stroke-dasharray:none;stroke-opacity:1"
         id="path2295" />
      <path
         inkscape:connector-curvature="0"
         d="m 55.907163,132.70993 h -0.294922 c -0.442384,0.10089 -0.5588,0.12417 -1.086556,0.17074 l -0.03881,0.22507 0.09313,0.0155 c 0.325966,0.0543 0.450144,0.16298 0.450144,0.38805 0,0.0776 -0.0078,0.12418 -0.01552,0.19403 l -0.504472,2.77848 h 0.714022 l 0.34925,-1.94804 c 0.07761,-0.4191 0.170744,-0.72955 0.271639,-0.90805 0.147461,-0.24836 0.34925,-0.39582 0.5588,-0.39582 0.07761,0 0.124178,0.0155 0.287161,0.10866 0.147461,0.0776 0.217311,0.10089 0.341489,0.10089 0.294922,0 0.504472,-0.17074 0.504472,-0.4191 0,-0.24059 -0.186266,-0.38029 -0.496711,-0.38029 -0.4191,0 -0.807156,0.19402 -1.234017,0.62865 z"
         style="font-style:italic;font-variant:normal;font-weight:normal;font-stretch:normal;font-size:7.76111126px;font-family:'URW Bookman L';-inkscape-font-specification:'URW Bookman L Italic';fill:#19aeff;stroke:#19aeff;stroke-width:0.5;stroke-linecap:round;stroke-linejoin:bevel;stroke-miterlimit:4;stroke-dasharray:none;stroke-opacity:1"
         id="path2297" />
      <path
         inkscape:connector-curvature="0"
         d="m 59.457021,135.81437 c -0.232833,0.2406 -0.395816,0.33373 -0.551038,0.33373 -0.248356,0 -0.411339,-0.18627 -0.411339,-0.45791 0,-0.0776 0.0078,-0.13194 0.01552,-0.20179 l 0.504472,-2.77847 h -0.294922 c -0.442383,0.10089 -0.5588,0.12417 -1.086556,0.17074 l -0.0388,0.22507 0.09313,0.0155 c 0.325967,0.0543 0.450145,0.16298 0.450145,0.38805 0,0.0854 0,0.12418 -0.01552,0.19403 l -0.325966,1.78505 c -0.01552,0.0854 -0.02328,0.18627 -0.02328,0.27164 0,0.48895 0.287161,0.79164 0.745067,0.79164 0.395817,0 0.760589,-0.18627 1.1176,-0.57433 z m -0.465666,-4.50144 c -0.2794,0 -0.551039,0.27164 -0.551039,0.55104 0,0.23283 0.162983,0.40357 0.380294,0.40357 0.302684,0 0.574323,-0.27164 0.574323,-0.58208 0,-0.21731 -0.170745,-0.37253 -0.403578,-0.37253 z"
         style="font-style:italic;font-variant:normal;font-weight:normal;font-stretch:normal;font-size:7.76111126px;font-family:'URW Bookman L';-inkscape-font-specification:'URW Bookman L Italic';fill:#19aeff;stroke:#19aeff;stroke-width:0.5;stroke-linecap:round;stroke-linejoin:bevel;stroke-miterlimit:4;stroke-dasharray:none;stroke-opacity:1"
         id="path2299" />
      <path
         inkscape:connector-curvature="0"
         d="m 62.96735,135.59706 c -0.667456,0.38029 -1.008945,0.48895 -1.46685,0.48895 -0.6985,0 -1.071034,-0.34925 -1.071034,-1.01671 0,-0.0931 0.0078,-0.16298 0.03881,-0.2794 0.783872,-0.0466 1.2573,-0.10865 1.74625,-0.23283 0.853722,-0.21731 1.32715,-0.60537 1.32715,-1.07879 0,-0.48119 -0.543278,-0.8382 -1.272822,-0.8382 -1.412523,0 -2.685345,1.16416 -2.685345,2.46027 0,0.83044 0.714022,1.45133 1.6764,1.45133 0.605367,0 1.272822,-0.25612 1.909234,-0.74507 z m -2.44475,-1.09432 c 0.155222,-0.49671 0.287161,-0.75282 0.543277,-1.04775 0.318206,-0.34925 0.659695,-0.52775 1.039989,-0.52775 0.403578,0 0.682978,0.23283 0.682978,0.5588 0,0.37253 -0.34925,0.69074 -0.923572,0.8382 -0.372534,0.10089 -0.939095,0.1785 -1.241778,0.1785 z"
         style="font-style:italic;font-variant:normal;font-weight:normal;font-stretch:normal;font-size:7.76111126px;font-family:'URW Bookman L';-inkscape-font-specification:'URW Bookman L Italic';fill:#19aeff;stroke:#19aeff;stroke-width:0.5;stroke-linecap:round;stroke-linejoin:bevel;stroke-miterlimit:4;stroke-dasharray:none;stroke-opacity:1"
         id="path2301" />
      <path
         inkscape:connector-curvature="0"
         d="m 69.260397,135.55825 c -0.512233,0.42687 -0.954616,0.62865 -1.373716,0.62865 -0.589845,0 -0.993423,-0.44238 -0.993423,-1.07103 0,-0.51999 0.217311,-1.21073 0.519995,-1.61431 0.263878,-0.36477 0.605366,-0.57432 0.931333,-0.57432 0.341489,0 0.582083,0.21731 0.582083,0.51999 0,0.0311 0,0.0699 -0.0078,0.11642 -0.0078,0.0543 -0.01552,0.10089 -0.01552,0.12418 0,0.15522 0.124178,0.26387 0.294922,0.26387 0.263878,0 0.450145,-0.20178 0.450145,-0.47342 0,-0.47343 -0.519995,-0.8382 -1.195211,-0.8382 -1.241778,0 -2.351617,1.1176 -2.351617,2.36714 0,0.91581 0.636411,1.54446 1.559983,1.54446 0.62865,0 1.358195,-0.32597 1.769534,-0.7994 z"
         style="font-style:italic;font-variant:normal;font-weight:normal;font-stretch:normal;font-size:7.76111126px;font-family:'URW Bookman L';-inkscape-font-specification:'URW Bookman L Italic';fill:#19aeff;stroke:#19aeff;stroke-width:0.5;stroke-linecap:round;stroke-linejoin:bevel;stroke-miterlimit:4;stroke-dasharray:none;stroke-opacity:1"
         id="path2303" />
      <path
         inkscape:connector-curvature="0"
         d="m 72.151167,132.64008 c -0.651934,0 -1.210734,0.24059 -1.660878,0.71402 -0.411339,0.44238 -0.659694,1.05551 -0.659694,1.65312 0,0.92357 0.651933,1.54446 1.622072,1.54446 1.280583,0 2.312811,-1.03223 2.312811,-2.32058 0,-0.95461 -0.644172,-1.59102 -1.614311,-1.59102 z m -0.04657,0.32596 c 0.240595,0 0.519995,0.12418 0.651933,0.2794 0.131939,0.17075 0.217312,0.46567 0.217312,0.7994 0,0.4579 -0.162984,1.09431 -0.372534,1.46685 -0.263878,0.46566 -0.644172,0.71402 -1.094316,0.71402 -0.589845,0 -0.923573,-0.40358 -0.923573,-1.10984 0,-0.54328 0.217311,-1.20297 0.527756,-1.62207 0.263878,-0.34149 0.613128,-0.52776 0.993422,-0.52776 z"
         style="font-style:italic;font-variant:normal;font-weight:normal;font-stretch:normal;font-size:7.76111126px;font-family:'URW Bookman L';-inkscape-font-specification:'URW Bookman L Italic';fill:#19aeff;stroke:#19aeff;stroke-width:0.5;stroke-linecap:round;stroke-linejoin:bevel;stroke-miterlimit:4;stroke-dasharray:none;stroke-opacity:1"
         id="path2305" />
      <path
         inkscape:connector-curvature="0"
         d="m 78.220844,132.70993 h -0.714022 l -0.512233,2.81728 c -0.628651,0.45791 -1.008945,0.62089 -1.428045,0.62089 -0.294922,0 -0.473428,-0.17851 -0.473428,-0.46567 0,-0.0776 0.0078,-0.1397 0.03881,-0.31044 l 0.481189,-2.66206 h -0.294923 c -0.442383,0.10089 -0.5588,0.12417 -1.086555,0.17074 l -0.03881,0.22507 0.09313,0.0155 c 0.325966,0.0543 0.450144,0.16298 0.450144,0.39581 0,0.0776 0,0.11642 -0.01552,0.18627 l -0.302683,1.66088 c -0.03105,0.1785 -0.04657,0.33372 -0.04657,0.46566 0,0.45015 0.318205,0.72179 0.869244,0.72179 0.372534,0 0.6985,-0.0854 1.078795,-0.28716 0.2794,-0.14747 0.481189,-0.29493 0.620889,-0.42687 0.06209,0.45015 0.357011,0.71403 0.799394,0.71403 0.388056,0 0.76835,-0.20179 1.094317,-0.58209 l -0.178506,-0.16298 c -0.155222,0.20179 -0.380294,0.34149 -0.5588,0.34149 -0.225072,0 -0.395816,-0.20179 -0.395816,-0.46567 0,-0.0621 0,-0.0621 0.06209,-0.43462 z"
         style="font-style:italic;font-variant:normal;font-weight:normal;font-stretch:normal;font-size:7.76111126px;font-family:'URW Bookman L';-inkscape-font-specification:'URW Bookman L Italic';fill:#19aeff;stroke:#19aeff;stroke-width:0.5;stroke-linecap:round;stroke-linejoin:bevel;stroke-miterlimit:4;stroke-dasharray:none;stroke-opacity:1"
         id="path2307" />
      <path
         inkscape:connector-curvature="0"
         d="m 80.247584,133.6335 c 0.589844,-0.45015 0.985661,-0.62865 1.404761,-0.62865 0.325967,0 0.535517,0.1785 0.535517,0.4579 0,0.0621 -0.01552,0.16299 -0.03104,0.27164 -0.02328,0.0854 -0.03881,0.19403 -0.03881,0.19403 l -0.225072,1.2185 c -0.06985,0.37253 -0.08537,0.51999 -0.08537,0.66745 0,0.4191 0.310445,0.73731 0.721784,0.73731 0.372533,0 0.729544,-0.18627 1.008944,-0.52776 l -0.155222,-0.17074 c -0.225072,0.22507 -0.333728,0.29492 -0.481189,0.29492 -0.20955,0 -0.372533,-0.19403 -0.372533,-0.43462 0,-0.1009 0.01552,-0.20179 0.05433,-0.42686 l 0.232834,-1.27283 c 0.09313,-0.48119 0.09313,-0.48119 0.09313,-0.64417 0,-0.45014 -0.364772,-0.72954 -0.962378,-0.72954 -0.519994,0 -1.001183,0.18626 -1.629833,0.62865 l 0.100894,-0.5588 h -0.294922 c -0.442383,0.10089 -0.5588,0.12417 -1.086555,0.17074 l -0.03881,0.22507 0.09313,0.0155 c 0.325967,0.0543 0.450145,0.16298 0.450145,0.38805 0,0.0776 -0.0078,0.12418 -0.01552,0.19403 l -0.504473,2.77848 h 0.714023 z"
         style="font-style:italic;font-variant:normal;font-weight:normal;font-stretch:normal;font-size:7.76111126px;font-family:'URW Bookman L';-inkscape-font-specification:'URW Bookman L Italic';fill:#19aeff;stroke:#19aeff;stroke-width:0.5;stroke-linecap:round;stroke-linejoin:bevel;stroke-miterlimit:4;stroke-dasharray:none;stroke-opacity:1"
         id="path2309" />
      <path
         inkscape:connector-curvature="0"
         d="m 85.448618,131.32069 h -0.2794 c -0.20955,1.00118 -0.527755,1.33491 -1.319389,1.38924 l -0.04657,0.24835 h 0.636411 l -0.426861,2.3361 c -0.05433,0.31044 -0.07761,0.46566 -0.07761,0.62089 0,0.40357 0.34925,0.63641 0.939094,0.63641 0.442384,0 0.8382,-0.16299 1.195211,-0.49671 l -0.170744,-0.19403 c -0.302683,0.26388 -0.535517,0.36477 -0.791633,0.36477 -0.263878,0 -0.442384,-0.18627 -0.442384,-0.45791 0,-0.13193 0.01552,-0.22507 0.08537,-0.60536 l 0.403578,-2.20416 h 1.109839 l 0.04657,-0.24835 h -1.109839 z"
         style="font-style:italic;font-variant:normal;font-weight:normal;font-stretch:normal;font-size:7.76111126px;font-family:'URW Bookman L';-inkscape-font-specification:'URW Bookman L Italic';fill:#19aeff;stroke:#19aeff;stroke-width:0.5;stroke-linecap:round;stroke-linejoin:bevel;stroke-miterlimit:4;stroke-dasharray:none;stroke-opacity:1"
         id="path2311" />
      <path
         inkscape:connector-curvature="0"
         d="m 89.646167,135.59706 c -0.667455,0.38029 -1.008944,0.48895 -1.46685,0.48895 -0.6985,0 -1.071033,-0.34925 -1.071033,-1.01671 0,-0.0931 0.0078,-0.16298 0.03881,-0.2794 0.783872,-0.0466 1.2573,-0.10865 1.74625,-0.23283 0.853722,-0.21731 1.32715,-0.60537 1.32715,-1.07879 0,-0.48119 -0.543278,-0.8382 -1.272823,-0.8382 -1.412522,0 -2.685344,1.16416 -2.685344,2.46027 0,0.83044 0.714022,1.45133 1.6764,1.45133 0.605367,0 1.272822,-0.25612 1.909233,-0.74507 z m -2.44475,-1.09432 c 0.155223,-0.49671 0.287161,-0.75282 0.543278,-1.04775 0.318206,-0.34925 0.659695,-0.52775 1.039989,-0.52775 0.403578,0 0.682978,0.23283 0.682978,0.5588 0,0.37253 -0.34925,0.69074 -0.923572,0.8382 -0.372534,0.10089 -0.939095,0.1785 -1.241778,0.1785 z"
         style="font-style:italic;font-variant:normal;font-weight:normal;font-stretch:normal;font-size:7.76111126px;font-family:'URW Bookman L';-inkscape-font-specification:'URW Bookman L Italic';fill:#19aeff;stroke:#19aeff;stroke-width:0.5;stroke-linecap:round;stroke-linejoin:bevel;stroke-miterlimit:4;stroke-dasharray:none;stroke-opacity:1"
         id="path2313" />
      <path
         inkscape:connector-curvature="0"
         d="m 92.044835,132.70993 h -0.294922 c -0.442383,0.10089 -0.5588,0.12417 -1.086556,0.17074 l -0.03881,0.22507 0.09313,0.0155 c 0.325967,0.0543 0.450145,0.16298 0.450145,0.38805 0,0.0776 -0.0078,0.12418 -0.01552,0.19403 l -0.504472,2.77848 h 0.714022 l 0.34925,-1.94804 c 0.07761,-0.4191 0.170745,-0.72955 0.271639,-0.90805 0.147461,-0.24836 0.34925,-0.39582 0.5588,-0.39582 0.07761,0 0.124178,0.0155 0.287161,0.10866 0.147462,0.0776 0.217312,0.10089 0.341489,0.10089 0.294923,0 0.504473,-0.17074 0.504473,-0.4191 0,-0.24059 -0.186267,-0.38029 -0.496712,-0.38029 -0.4191,0 -0.807155,0.19402 -1.234016,0.62865 z"
         style="font-style:italic;font-variant:normal;font-weight:normal;font-stretch:normal;font-size:7.76111126px;font-family:'URW Bookman L';-inkscape-font-specification:'URW Bookman L Italic';fill:#19aeff;stroke:#19aeff;stroke-width:0.5;stroke-linecap:round;stroke-linejoin:bevel;stroke-miterlimit:4;stroke-dasharray:none;stroke-opacity:1"
         id="path2315" />
    </g>
  </g>
</svg>
