<?xml version="1.0" encoding="UTF-8" standalone="no"?>
<!-- Created with Inkscape (http://www.inkscape.org/) -->

<svg
   xmlns:dc="http://purl.org/dc/elements/1.1/"
   xmlns:cc="http://creativecommons.org/ns#"
   xmlns:rdf="http://www.w3.org/1999/02/22-rdf-syntax-ns#"
   xmlns:svg="http://www.w3.org/2000/svg"
   xmlns="http://www.w3.org/2000/svg"
   xmlns:sodipodi="http://sodipodi.sourceforge.net/DTD/sodipodi-0.dtd"
   xmlns:inkscape="http://www.inkscape.org/namespaces/inkscape"
   width="48"
   height="48"
   viewBox="0 0 12.7 12.7"
   version="1.1"
   id="svg1376"
   inkscape:version="0.92.3 (2405546, 2018-03-11)"
   sodipodi:docname="A0314.svg">
  <title
     id="title845">Mjukost</title>
  <defs
     id="defs1370" />
  <sodipodi:namedview
     id="base"
     pagecolor="#ffffff"
     bordercolor="#666666"
     borderopacity="1.0"
     inkscape:pageopacity="0.0"
     inkscape:pageshadow="2"
     inkscape:zoom="5.6568543"
     inkscape:cx="16.596349"
     inkscape:cy="8.1073347"
     inkscape:document-units="mm"
     inkscape:current-layer="g826"
     showgrid="true"
     units="px"
     inkscape:window-width="1022"
     inkscape:window-height="1096"
     inkscape:window-x="0"
     inkscape:window-y="0"
     inkscape:window-maximized="0"
     inkscape:snap-global="false">
    <inkscape:grid
       type="xygrid"
       id="grid1944" />
  </sodipodi:namedview>
  <metadata
     id="metadata1373">
    <rdf:RDF>
      <cc:Work
         rdf:about="">
        <dc:format>image/svg+xml</dc:format>
        <dc:type
           rdf:resource="http://purl.org/dc/dcmitype/StillImage" />
        <dc:title>Mjukost</dc:title>
      </cc:Work>
    </rdf:RDF>
  </metadata>
  <g
     inkscape:label="Layer 1"
     inkscape:groupmode="layer"
     id="layer1"
     transform="translate(0,-284.29998)">
    <g
       id="g907"
       transform="translate(-1.6808507,-0.03332089)">
      <g
         id="g826"
         transform="rotate(45,7.1290983,291.84252)">
        <path
           style="opacity:0.2;fill:#0f0f0f;fill-opacity:1;stroke:none;stroke-width:0.29000005;stroke-linecap:round;stroke-linejoin:bevel;stroke-miterlimit:4;stroke-dasharray:none;stroke-opacity:1"
           d="m 6.1303561,285.39409 c -0.095647,0.0956 -0.1545674,0.22796 -0.1545674,0.37454 v 0.0497 c 0,0.23079 0.1473578,0.4239 0.3526182,0.49659 l -0.07162,-7.3e-4 -0.5068204,1.28295 c -0.1836255,0.0815 -0.3087394,0.26744 -0.3197316,0.48489 l -0.3493295,6.89378 c -0.1017817,0.0963 -0.1658953,0.23184 -0.1658951,0.38368 l -3.654e-4,0.21523 c -1e-7,0.29315 0.2359518,0.52911 0.5291102,0.52911 h 0.00877 c 0.040929,0.01 0.08254,0.0164 0.1260658,0.0164 h 2.9108365 c 0.04353,0 0.08516,-0.007 0.126066,-0.0164 h 0.0015 c 0.293158,0 0.529109,-0.23596 0.529109,-0.52911 l 3.66e-4,-0.21523 c 0,-0.14771 -0.06053,-0.28019 -0.157491,-0.376 l -0.334348,-6.90146 c -0.01016,-0.20966 -0.1277,-0.38893 -0.3007303,-0.47466 l -0.54263,-1.27637 -0.086967,-7.3e-4 c 0.2307278,-0.0571 0.4012178,-0.26344 0.4012178,-0.5123 v -0.0497 c 0,-0.29315 -0.235952,-0.52911 -0.5291104,-0.52911 l -1.0914724,3.7e-4 c -0.1465792,0 -0.2788957,0.0589 -0.3745426,0.15457 z"
           id="rect830-6"
           inkscape:connector-curvature="0" />
        <path
           style="opacity:1;fill:#cccccc;fill-opacity:1;stroke:none;stroke-width:0.29000002;stroke-linecap:round;stroke-linejoin:bevel;stroke-miterlimit:4;stroke-dasharray:none;stroke-opacity:1"
           d="m 7.6248835,286.14378 0.5622311,1.32292 -2.645827,0 0.5291592,-1.33946 z"
           id="rect830"
           inkscape:connector-curvature="0"
           sodipodi:nodetypes="ccccc" />
        <path
           style="opacity:1;fill:#0084c8;fill-opacity:1;stroke:none;stroke-width:0.29000002;stroke-linecap:round;stroke-linejoin:bevel;stroke-miterlimit:4;stroke-dasharray:none;stroke-opacity:1"
           d="m 8.4682275,287.89506 0.3638,7.50912 c 0.0142,0.29282 -0.23601,0.52916 -0.52917,0.52916 h -2.91041 c -0.29316,0 -0.544,-0.23638 -0.52917,-0.52916 l 0.38034,-7.50912 c 0.0148,-0.29278 0.23601,-0.52917 0.52917,-0.52917 h 2.16627 c 0.29316,0 0.51498,0.23635 0.52917,0.52917 z"
           id="rect828"
           inkscape:connector-curvature="0"
           sodipodi:nodetypes="sssssssss" />
        <rect
           style="opacity:0.2;fill:#000000;fill-opacity:1;stroke:none;stroke-width:0.29000005;stroke-linecap:round;stroke-linejoin:bevel;stroke-miterlimit:4;stroke-dasharray:none;stroke-opacity:1"
           id="rect822-2"
           width="1.1079427"
           height="2.1497395"
           x="285.24573"
           y="-8.1279793"
           transform="rotate(90)"
           ry="0.52916664"
           rx="0.52916664" />
        <rect
           style="opacity:1;fill:#ff4141;fill-opacity:1;stroke:none;stroke-width:0.29000002;stroke-linecap:round;stroke-linejoin:bevel;stroke-miterlimit:4;stroke-dasharray:none;stroke-opacity:1"
           id="rect822"
           width="1.1079427"
           height="2.1497395"
           x="285.05237"
           y="-7.9390516"
           transform="rotate(90)"
           ry="0.52916664"
           rx="0.52916664" />
        <rect
           style="opacity:1;fill:#006aa0;fill-opacity:1;stroke:none;stroke-width:0.29000002;stroke-linecap:round;stroke-linejoin:bevel;stroke-miterlimit:4;stroke-dasharray:none;stroke-opacity:1"
           id="rect839"
           width="1.2733073"
           height="4.2314696"
           x="294.64352"
           y="-8.9599562"
           transform="rotate(90)"
           ry="0.5291667"
           rx="0.5291667" />
        <path
           style="opacity:0.2;fill:#ffffff;fill-opacity:1;stroke:none;stroke-width:0.29000008;stroke-linecap:round;stroke-linejoin:bevel;stroke-miterlimit:4;stroke-dasharray:none;stroke-opacity:1"
           d="m 6.0696986,286.12712 -0.5068204,1.28294 c -0.1836253,0.0815 -0.3087394,0.26745 -0.3197316,0.4849 l -0.3493296,6.89378 c -0.1017817,0.0963 -0.1658952,0.23183 -0.1658951,0.38367 l -3.653e-4,0.21523 c 0,0.19516 0.1055856,0.36321 0.2619973,0.45493 -0.042989,-0.0766 -0.069427,-0.16355 -0.069427,-0.25798 l 3.654e-4,-0.21522 c -4e-7,-0.15184 0.064114,-0.28738 0.1658951,-0.38368 l 0.3493295,-6.89378 c 0.010992,-0.21745 0.1361052,-0.40339 0.3197316,-0.48489 l 0.5068204,-1.28295 0.07162,7.3e-4 C 6.2282843,286.2874 6.1397757,286.217 6.0770074,286.12712 Z"
           id="rect830-6-5"
           inkscape:connector-curvature="0"
           sodipodi:nodetypes="cccccccccccccccc" />
      </g>
    </g>
  </g>
</svg>
