<?xml version="1.0" encoding="UTF-8" standalone="no"?>
<!-- Created with Inkscape (http://www.inkscape.org/) -->

<svg
   xmlns:dc="http://purl.org/dc/elements/1.1/"
   xmlns:cc="http://creativecommons.org/ns#"
   xmlns:rdf="http://www.w3.org/1999/02/22-rdf-syntax-ns#"
   xmlns:svg="http://www.w3.org/2000/svg"
   xmlns="http://www.w3.org/2000/svg"
   xmlns:sodipodi="http://sodipodi.sourceforge.net/DTD/sodipodi-0.dtd"
   xmlns:inkscape="http://www.inkscape.org/namespaces/inkscape"
   width="48"
   height="48"
   viewBox="0 0 12.7 12.7"
   version="1.1"
   id="svg1376"
   inkscape:version="0.92.3 (2405546, 2018-03-11)"
   sodipodi:docname="A0311.svg">
  <title
     id="title3853">Hårdost</title>
  <defs
     id="defs1370" />
  <sodipodi:namedview
     id="base"
     pagecolor="#ffffff"
     bordercolor="#666666"
     borderopacity="1.0"
     inkscape:pageopacity="0.0"
     inkscape:pageshadow="2"
     inkscape:zoom="8"
     inkscape:cx="75.496177"
     inkscape:cy="14.309333"
     inkscape:document-units="mm"
     inkscape:current-layer="layer1"
     showgrid="true"
     units="px"
     inkscape:window-width="2048"
     inkscape:window-height="1101"
     inkscape:window-x="0"
     inkscape:window-y="0"
     inkscape:window-maximized="1"
     inkscape:snap-global="false">
    <inkscape:grid
       type="xygrid"
       id="grid1944" />
  </sodipodi:namedview>
  <metadata
     id="metadata1373">
    <rdf:RDF>
      <cc:Work
         rdf:about="">
        <dc:format>image/svg+xml</dc:format>
        <dc:type
           rdf:resource="http://purl.org/dc/dcmitype/StillImage" />
        <dc:title>Hårdost</dc:title>
      </cc:Work>
    </rdf:RDF>
  </metadata>
  <g
     inkscape:label="Layer 1"
     inkscape:groupmode="layer"
     id="layer1"
     transform="translate(0,-284.29998)">
    <path
       style="opacity:0.2;fill:#000000;fill-opacity:1;stroke:none;stroke-width:0.29838315px;stroke-linecap:butt;stroke-linejoin:miter;stroke-opacity:1"
       d="m -8.1540895,286.95533 c -0.1218462,-0.002 -6.0639765,5.11129 -6.0639765,5.11129 l 0.0033,3.37573 10.5556813,-1.72772 -0.03015,-4.06875 c 0,0 -0.518186,-1.22358 -2.0621943,-2.00875 -1.158006,-0.58883 -2.1263433,-0.67947 -2.4026059,-0.6818 z"
       id="path3082-6"
       inkscape:connector-curvature="0"
       sodipodi:nodetypes="ccccccc" />
    <path
       style="fill:#f3ae00;fill-opacity:1;stroke:none;stroke-width:0.29838315px;stroke-linecap:butt;stroke-linejoin:miter;stroke-opacity:1"
       d="m -8.1500415,286.55773 c -0.1218462,-0.002 -6.0639765,5.11128 -6.0639765,5.11128 l 0.0033,3.37573 10.5556773,-1.72772 -0.03015,-4.06875 c 0,0 -0.518185,-1.22358 -2.0621911,-2.00875 -1.1580059,-0.58882 -2.1263431,-0.67947 -2.4026057,-0.68179 z"
       id="path3082"
       inkscape:connector-curvature="0"
       sodipodi:nodetypes="ccccccc" />
    <path
       style="fill:#ffc022;stroke:none;stroke-width:0.29838315px;stroke-linecap:butt;stroke-linejoin:miter;stroke-opacity:1"
       d="m -8.1499517,286.55924 c -0.1218463,-0.002 -6.0639763,5.11128 -6.0639763,5.11128 l 10.5287823,-2.42074 c 0,0 -0.518185,-1.22357 -2.0621929,-2.00874 -1.1580053,-0.58883 -2.1263436,-0.67948 -2.4026055,-0.6818 z"
       id="path3082-3"
       inkscape:connector-curvature="0"
       sodipodi:nodetypes="cccccc" />
    <path
       style="opacity:0.2;fill:#ffffff;stroke:none;stroke-width:0.29838315px;stroke-linecap:butt;stroke-linejoin:miter;stroke-opacity:1"
       d="m -8.1489073,286.55721 c -0.1218462,-0.002 -6.0644787,5.11154 -6.0644777,5.11154 l 0.0033,3.37542 h 6.63e-4 l -0.0026,-3.01731 c 0,0 5.9419686,-5.11344 6.0638147,-5.11088 0.2762629,0.002 1.2445757,0.093 2.4025813,0.68172 1.5440053,0.78516 2.0623853,2.00867 2.0623853,2.00867 l 0.02719,3.7103 h 0.0019 l -0.0305,-4.06906 c 0,0 -0.517715,-1.22351 -2.0617205,-2.00867 -1.1580055,-0.58883 -2.1263182,-0.6794 -2.4025812,-0.68173 z"
       id="path3082-7"
       inkscape:connector-curvature="0" />
    <ellipse
       style="opacity:1;fill:#dc9d00;fill-opacity:1;stroke:none;stroke-width:0.84396178;stroke-linecap:round;stroke-linejoin:miter;stroke-miterlimit:4;stroke-dasharray:none;stroke-opacity:1"
       id="path3198"
       cx="-5.4664326"
       cy="289.89139"
       rx="0.69897395"
       ry="0.69007498"
       transform="matrix(0.98726863,-0.15906176,0,1,0,0)" />
    <ellipse
       style="opacity:1;fill:#dc9e00;fill-opacity:1;stroke:none;stroke-width:0.9073742;stroke-linecap:round;stroke-linejoin:miter;stroke-miterlimit:4;stroke-dasharray:none;stroke-opacity:1"
       id="path3198-6"
       cx="-9.3242397"
       cy="290.59305"
       rx="0.75149244"
       ry="0.74192494"
       transform="matrix(0.98726863,-0.15906176,0,1,0,0)" />
    <ellipse
       style="opacity:1;fill:#dc9d00;fill-opacity:1;stroke:none;stroke-width:0.92549211;stroke-linecap:round;stroke-linejoin:miter;stroke-miterlimit:4;stroke-dasharray:none;stroke-opacity:1"
       id="path3198-2"
       cx="-12.196621"
       cy="291.24652"
       rx="0.76649779"
       ry="0.7567392"
       transform="matrix(0.98726863,-0.15906176,0,1,0,0)" />
    <ellipse
       style="opacity:1;fill:#dc9d00;fill-opacity:1;stroke:none;stroke-width:0.63323474;stroke-linecap:round;stroke-linejoin:miter;stroke-miterlimit:4;stroke-dasharray:none;stroke-opacity:1"
       id="path3198-9"
       cx="-7.4378963"
       cy="291.78778"
       rx="0.51514953"
       ry="0.52711809"
       transform="matrix(0.98631762,-0.16485613,0,1,0,0)" />
    <path
       style="opacity:0.2;fill:#060606;fill-opacity:1;stroke:none;stroke-width:0.28999996;stroke-linecap:round;stroke-linejoin:bevel;stroke-miterlimit:4;stroke-dasharray:none;stroke-opacity:1"
       d="m 11.483063,288.66128 c -1.306973,4.16208 -5.1572453,7.08533 -9.6182245,7.30425 -0.2815017,0.0134 -0.5292355,-0.29812 -0.5296959,-0.55909 l -0.00783,-9.26601 c -0.00817,-0.26898 0.2633199,-0.42766 0.5492074,-0.37358 l 9.224343,2.28284 c 0.294073,0.0696 0.454,0.36648 0.38221,0.61156 z"
       id="path825-3"
       inkscape:connector-curvature="0"
       sodipodi:nodetypes="cccccccc" />
    <path
       transform="matrix(0.9692051,0.24625488,-0.25865771,0.96596904,0,0)"
       style="opacity:1;fill:#ffc022;fill-opacity:1;stroke:none;stroke-width:0.29001188;stroke-linecap:round;stroke-linejoin:bevel;stroke-miterlimit:4;stroke-dasharray:none;stroke-opacity:1"
       d="m 85.693796,276.7213 c -0.185958,4.35611 -3.149322,8.1378 -7.402215,9.44862 -0.268482,0.0823 -0.588383,-0.15862 -0.656335,-0.41146 l -2.404488,-8.97948 c -0.07747,-0.2587 0.143754,-0.47937 0.433924,-0.49736 l 9.501685,-0.059 c 0.302082,-0.005 0.533385,0.24341 0.527429,0.49864 z"
       id="path825"
       inkscape:connector-curvature="0"
       sodipodi:nodetypes="cccccccc" />
    <path
       style="opacity:1;fill:#ffc022;fill-opacity:1;stroke:none;stroke-width:0.28999999;stroke-linecap:round;stroke-linejoin:bevel;stroke-miterlimit:4;stroke-dasharray:none;stroke-opacity:1"
       d="m 5.2274192,298.63585 h 2.3386084 c 0.2720737,0 0.4911077,0.21904 0.4911077,0.49111 v 2.13983 c 0,0.27207 -0.219034,0.49111 -0.4911077,0.49111 H 5.2274192 c -0.2720737,0 -0.4911078,-0.21904 -0.4911078,-0.49111 v -2.13983 c 0,-0.27207 0.2190341,-0.49111 0.4911078,-0.49111 z"
       id="rect828"
       inkscape:connector-curvature="0" />
    <path
       style="opacity:1;fill:#ffc022;fill-opacity:1;stroke:none;stroke-width:0.28999999;stroke-linecap:round;stroke-linejoin:bevel;stroke-miterlimit:4;stroke-dasharray:none;stroke-opacity:1"
       id="path831"
       sodipodi:type="arc"
       sodipodi:cx="3.2246094"
       sodipodi:cy="289.41925"
       sodipodi:rx="0.71106768"
       sodipodi:ry="1.1505318"
       sodipodi:start="6.2768323"
       sodipodi:end="1.3147949"
       d="m 3.9356627,289.41194 a 0.71106768,1.1505318 0 0 1 -0.5310008,1.12035 l -0.1800525,-1.11304 z" />
    <circle
       style="opacity:1;fill:#f0ac00;fill-opacity:1;stroke:none;stroke-width:0.28999999;stroke-linecap:round;stroke-linejoin:bevel;stroke-miterlimit:4;stroke-dasharray:none;stroke-opacity:1"
       id="path833"
       cx="3.2907538"
       cy="293.6431"
       r="0.85989577" />
    <circle
       style="opacity:1;fill:#f0ac00;fill-opacity:1;stroke:none;stroke-width:0.29000002;stroke-linecap:round;stroke-linejoin:bevel;stroke-miterlimit:4;stroke-dasharray:none;stroke-opacity:1"
       id="path833-3"
       cx="3.2411458"
       cy="288.79788"
       r="0.8102864" />
    <circle
       style="opacity:1;fill:#f0ac00;fill-opacity:1;stroke:none;stroke-width:0.29000002;stroke-linecap:round;stroke-linejoin:bevel;stroke-miterlimit:4;stroke-dasharray:none;stroke-opacity:1"
       id="path833-6"
       cx="7.6977215"
       cy="290.311"
       r="0.91777337" />
    <circle
       style="opacity:1;fill:#f0ac00;fill-opacity:1;stroke:none;stroke-width:0.29000002;stroke-linecap:round;stroke-linejoin:bevel;stroke-miterlimit:4;stroke-dasharray:none;stroke-opacity:1"
       id="path833-7"
       cx="5.0766926"
       cy="291.22876"
       r="0.76067704" />
    <circle
       style="opacity:1;fill:#f0ac00;fill-opacity:1;stroke:none;stroke-width:0.29000002;stroke-linecap:round;stroke-linejoin:bevel;stroke-miterlimit:4;stroke-dasharray:none;stroke-opacity:1"
       id="path833-5"
       cx="5.4570312"
       cy="287.77261"
       r="0.56223953" />
    <path
       style="opacity:0.2;fill:#ffffff;fill-opacity:1;stroke:none;stroke-width:0.28999996;stroke-linecap:round;stroke-linejoin:bevel;stroke-miterlimit:4;stroke-dasharray:none;stroke-opacity:1"
       d="m 1.7694495,285.49456 c -0.2433754,-0.002 -0.4500158,0.1486 -0.442867,0.38396 v 0.27957 c -0.00631,-0.26734 0.2643896,-0.42494 0.5493205,-0.37104 l 9.224243,2.28255 c 0.191679,0.0454 0.325013,0.18761 0.375687,0.34882 0.002,-0.006 0.0042,-0.0127 0.0062,-0.0191 0.07179,-0.24508 -0.08833,-0.54174 -0.382405,-0.61134 l -9.2242429,-2.28306 c -0.035736,-0.007 -0.071169,-0.01 -0.1059367,-0.0103 z"
       id="path825-3-5"
       inkscape:connector-curvature="0" />
  </g>
</svg>
