<?xml version="1.0" encoding="UTF-8" standalone="no"?>
<!-- Created with Inkscape (http://www.inkscape.org/) -->

<svg
   xmlns:dc="http://purl.org/dc/elements/1.1/"
   xmlns:cc="http://creativecommons.org/ns#"
   xmlns:rdf="http://www.w3.org/1999/02/22-rdf-syntax-ns#"
   xmlns:svg="http://www.w3.org/2000/svg"
   xmlns="http://www.w3.org/2000/svg"
   xmlns:sodipodi="http://sodipodi.sourceforge.net/DTD/sodipodi-0.dtd"
   xmlns:inkscape="http://www.inkscape.org/namespaces/inkscape"
   width="48"
   height="48"
   viewBox="0 0 12.7 12.7"
   version="1.1"
   id="svg1376"
   inkscape:version="0.92.3 (2405546, 2018-03-11)"
   sodipodi:docname="A0788.svg">
  <title
     id="title842">Vegetabiliska produkter</title>
  <defs
     id="defs1370" />
  <sodipodi:namedview
     id="base"
     pagecolor="#ffffff"
     bordercolor="#666666"
     borderopacity="1.0"
     inkscape:pageopacity="0.0"
     inkscape:pageshadow="2"
     inkscape:zoom="2"
     inkscape:cx="70.641771"
     inkscape:cy="-37.118588"
     inkscape:document-units="mm"
     inkscape:current-layer="g914"
     showgrid="true"
     units="px"
     inkscape:window-width="2048"
     inkscape:window-height="1101"
     inkscape:window-x="0"
     inkscape:window-y="0"
     inkscape:window-maximized="1"
     inkscape:snap-global="false">
    <inkscape:grid
       type="xygrid"
       id="grid1944" />
  </sodipodi:namedview>
  <metadata
     id="metadata1373">
    <rdf:RDF>
      <cc:Work
         rdf:about="">
        <dc:format>image/svg+xml</dc:format>
        <dc:type
           rdf:resource="http://purl.org/dc/dcmitype/StillImage" />
        <dc:title>Vegetabiliska produkter</dc:title>
      </cc:Work>
    </rdf:RDF>
  </metadata>
  <g
     inkscape:label="Layer 1"
     inkscape:groupmode="layer"
     id="layer1"
     transform="translate(0,-284.29998)">
    <g
       id="g907"
       transform="translate(0.03894099,0.66121036)">
      <g
         id="g1276"
         transform="matrix(1.7771756,0,0,1.7771756,-4.6488232,-225.19917)">
        <g
           transform="matrix(0.65087967,-0.39604191,0.39604191,0.65087967,-113.55748,102.66745)"
           id="g884">
          <path
             style="opacity:0.347;fill:#2d2d2d;stroke:none;stroke-width:0.14608458px;stroke-linecap:butt;stroke-linejoin:miter;stroke-opacity:1"
             d="m 6.2866143,288.29542 a 0.85824687,0.85824687 0 0 0 -0.4676934,-0.12196 0.85824687,0.85824687 0 0 0 -0.085525,0.007 0.85824687,0.85824687 0 0 0 -0.4995809,0.24909 0.85824687,0.85824687 0 0 0 -0.693871,-0.22161 0.85824687,0.85824687 0 0 0 -0.7331805,0.70202 0.85824687,0.85824687 0 0 0 -0.5451275,0.91205 0.85824687,0.85824687 0 0 0 0.9626819,0.73945 0.85824687,0.85824687 0 0 0 0.3672128,-0.14022 c 0.072804,0.18908 0.1546923,0.46305 0.1441326,0.75872 -0.018261,0.5113 -0.1276689,0.84931 -0.1276689,0.84931 0,0 0.1643813,0.20994 0.5843744,0.20994 0.4199932,0 0.5752075,-0.20084 0.5752075,-0.20084 0,0 -0.1279687,-0.48369 -0.1097079,-0.95846 0.00827,-0.21513 0.035627,-0.43271 0.062705,-0.61186 a 0.85824687,0.85824687 0 0 0 0.6658733,0.19787 0.85824687,0.85824687 0 0 0 0.7394455,-0.96268 0.85824687,0.85824687 0 0 0 -0.4246024,-0.63184 0.85824687,0.85824687 0 0 0 -0.00541,-0.15117 0.85824687,0.85824687 0 0 0 -0.4092648,-0.62474 z"
             id="path880-9"
             inkscape:connector-curvature="0" />
          <path
             style="fill:#9ade00;stroke:none;stroke-width:0.14608458px;stroke-linecap:butt;stroke-linejoin:miter;stroke-opacity:1"
             d="m 4.5739437,290.03046 c 0,0 0.2647783,0.48391 0.2465178,0.9952 -0.018261,0.5113 -0.127824,0.84912 -0.127824,0.84912 0,0 0.164345,0.20999 0.5843382,0.20999 0.4199932,0 0.5752081,-0.20086 0.5752081,-0.20086 0,0 -0.127824,-0.48391 -0.1095634,-0.95868 0.01826,-0.47478 0.127824,-0.98607 0.127824,-0.98607 z"
             id="path880"
             inkscape:connector-curvature="0"
             sodipodi:nodetypes="csczcccc" />
          <path
             style="opacity:1;fill:#009100;fill-opacity:1;stroke:none;stroke-width:0.16011791;stroke-linecap:round;stroke-linejoin:bevel;stroke-miterlimit:4;stroke-dasharray:none;stroke-opacity:1"
             d="m 5.9035416,288.01895 a 0.85824689,0.85824689 0 0 0 -0.085311,0.007 0.85824689,0.85824689 0 0 0 -0.4998831,0.24908 0.85824689,0.85824689 0 0 0 -0.6936165,-0.22141 0.85824689,0.85824689 0 0 0 -0.7332761,0.70161 0.85824689,0.85824689 0 0 0 -0.5452493,0.91217 0.85824689,0.85824689 0 0 0 0.9626746,0.73955 0.85824689,0.85824689 0 0 0 0.4442454,-0.19715 0.85824689,0.85824689 0 0 0 0.6171504,0.15864 0.85824689,0.85824689 0 0 0 0.3549398,-0.13154 0.85824689,0.85824689 0 0 0 0.7461156,0.27448 0.85824689,0.85824689 0 0 0 0.7392679,-0.96267 0.85824689,0.85824689 0 0 0 -0.4245583,-0.63199 0.85824689,0.85824689 0 0 0 -0.00542,-0.15122 0.85824689,0.85824689 0 0 0 -0.8770782,-0.7464 z"
             id="path844"
             inkscape:connector-curvature="0" />
          <path
             style="opacity:0.2;fill:#ffffff;stroke:none;stroke-width:0.14608458px;stroke-linecap:butt;stroke-linejoin:miter;stroke-opacity:1"
             d="m 6.3712788,288.13968 a 0.85824685,0.85824685 0 0 0 -0.4676933,-0.12196 0.85824685,0.85824685 0 0 0 -0.085525,0.007 0.85824685,0.85824685 0 0 0 -0.499581,0.24909 0.85824685,0.85824685 0 0 0 -0.693871,-0.22161 0.85824685,0.85824685 0 0 0 -0.6706634,0.50016 0.85824685,0.85824685 0 0 1 0.5605604,-0.31921 0.85824685,0.85824685 0 0 1 0.6938711,0.22161 0.85824685,0.85824685 0 0 1 0.4995809,-0.24909 0.85824685,0.85824685 0 0 1 0.085525,-0.007 0.85824685,0.85824685 0 0 1 0.4676932,0.12196 0.85824685,0.85824685 0 0 1 0.4092649,0.62474 0.85824685,0.85824685 0 0 1 0.00541,0.15117 0.85824685,0.85824685 0 0 1 0.4246023,0.63184 0.85824685,0.85824685 0 0 1 -0.068654,0.46305 0.85824685,0.85824685 0 0 0 0.1787574,-0.644 0.85824685,0.85824685 0 0 0 -0.4246024,-0.63184 0.85824685,0.85824685 0 0 0 -0.00541,-0.15117 0.85824685,0.85824685 0 0 0 -0.4092651,-0.62474 z m -2.5483069,0.64474 a 0.85824685,0.85824685 0 0 0 -0.4091505,0.42206 0.85824685,0.85824685 0 0 1 0.3675034,-0.27138 0.85824685,0.85824685 0 0 1 0.041647,-0.15068 z m 1.8721632,1.70876 c -0.027078,0.17915 -0.054435,0.39674 -0.062705,0.61187 -0.013782,0.35833 0.055519,0.72034 0.090446,0.87705 0.090328,-0.05 0.1293647,-0.0995 0.1293647,-0.0995 0,0 -0.1279687,-0.48369 -0.1097079,-0.95846 0.00488,-0.12701 0.017103,-0.252 0.031306,-0.3723 a 0.85824685,0.85824685 0 0 1 -0.078704,-0.0586 z"
             id="path880-9-2"
             inkscape:connector-curvature="0" />
        </g>
        <g
           id="g914"
           transform="translate(0.0093049,-1.0142351)">
          <path
             style="opacity:0.2;fill:#000000;fill-opacity:1;stroke:none;stroke-width:0.16318028;stroke-linecap:round;stroke-linejoin:bevel;stroke-miterlimit:4;stroke-dasharray:none;stroke-opacity:1"
             d="m 9.1282169,290.68308 c -2.6e-6,0.61153 -0.7536967,1.13022 -1.330602,1.10728 -0.6595706,-0.0262 -1.3305993,-0.49575 -1.3306021,-1.10728 2.8e-6,-0.68598 0.5957329,-1.10728 1.3306021,-1.10728 0.7348693,0 1.3585139,0.33756 1.330602,1.10728 z"
             id="path886-3"
             inkscape:connector-curvature="0"
             sodipodi:nodetypes="cscsc" />
          <path
             style="opacity:1;fill:#dc0000;fill-opacity:1;stroke:none;stroke-width:0.16318028;stroke-linecap:round;stroke-linejoin:bevel;stroke-miterlimit:4;stroke-dasharray:none;stroke-opacity:1"
             d="m 9.1259836,290.51484 c -2.7e-6,0.61153 -0.7536968,1.13022 -1.330602,1.10728 -0.6595706,-0.0262 -1.3305993,-0.49575 -1.3306021,-1.10728 2.8e-6,-0.68598 0.5957329,-1.10728 1.3306021,-1.10728 0.7348692,0 1.3585139,0.33756 1.330602,1.10728 z"
             id="path886"
             inkscape:connector-curvature="0"
             sodipodi:nodetypes="cscsc" />
          <path
             style="opacity:0.2;fill:#000000;fill-opacity:1;stroke:none;stroke-width:0.14887854px;stroke-linecap:butt;stroke-linejoin:miter;stroke-opacity:1"
             d="m 7.649172,289.89816 -0.3421373,0.30266 0.4474104,-0.18422 0.5395242,0.25002 -0.3947739,-0.34213 0.4868877,-0.17107 -0.5921606,0.0394 -0.4868878,-0.11844 z"
             id="path888-6"
             inkscape:connector-curvature="0" />
          <path
             style="opacity:0.2;fill:#ffffff;fill-opacity:1;stroke:none;stroke-width:0.16318028;stroke-linecap:round;stroke-linejoin:bevel;stroke-miterlimit:4;stroke-dasharray:none;stroke-opacity:1"
             d="m 7.794127,289.40696 c -0.7348701,0 -1.3305991,0.42131 -1.3306021,1.10729 2e-7,0.0398 0.00321,0.0792 0.00872,0.11776 0.023186,-0.66181 0.6084004,-1.06715 1.3285666,-1.06715 0.6763186,0 1.2569155,0.28695 1.3236234,0.93252 0.017944,-0.75741 -0.6010037,-1.09042 -1.3303113,-1.09042 z"
             id="path886-3-5"
             inkscape:connector-curvature="0" />
          <path
             style="fill:#009100;fill-opacity:1;stroke:none;stroke-width:0.14887854px;stroke-linecap:butt;stroke-linejoin:miter;stroke-opacity:1"
             d="m 7.647043,289.77993 -0.3421373,0.30266 0.4474104,-0.18422 0.5395242,0.25002 -0.3947739,-0.34213 0.4868877,-0.17107 -0.5921606,0.0394 -0.4868878,-0.11844 z"
             id="path888"
             inkscape:connector-curvature="0" />
        </g>
        <g
           id="g897"
           transform="matrix(0.30528294,0.97232685,-0.97232685,0.30528294,286.01783,198.05617)">
          <path
             style="opacity:0.2;fill:#020202;fill-opacity:1;stroke:none;stroke-width:0.1769221;stroke-linecap:round;stroke-linejoin:bevel;stroke-miterlimit:4;stroke-dasharray:none;stroke-opacity:1"
             d="m 5.2564055,286.64597 0.1947024,1.07911 c -0.3840749,0.18351 -0.3129511,1.28208 -0.3129508,2.40453 -3e-7,1.22301 0.1851504,2.07243 0.413349,2.07243 0.2281988,0 0.2049648,-0.82594 0.2839439,-2.04639 0.069528,-1.0744 0.2081469,-2.21116 -0.1343485,-2.42385 l 0.340423,-1.05853 -0.2466182,0.31971 0.036587,-0.50229 -0.1642362,0.48404 -0.1369486,-0.4201 -0.063817,0.4109 z"
             id="path890-6"
             inkscape:connector-curvature="0" />
          <path
             style="opacity:1;fill:#ff6600;fill-opacity:1;stroke:none;stroke-width:0.1769221;stroke-linecap:round;stroke-linejoin:bevel;stroke-miterlimit:4;stroke-dasharray:none;stroke-opacity:1"
             d="m 5.6917049,290.10704 c -0.078979,1.22045 -0.055869,2.04658 -0.2840678,2.04658 -0.2281985,0 -0.4131898,-0.8494 -0.4131896,-2.07241 -2e-7,-1.223 -0.086164,-2.42103 0.4261018,-2.43394 0.5122663,-0.0129 0.3486289,1.26259 0.2711556,2.45977 z"
             id="path890"
             inkscape:connector-curvature="0"
             sodipodi:nodetypes="ssszs" />
          <path
             style="fill:#9ade00;stroke:none;stroke-width:0.14608458px;stroke-linecap:butt;stroke-linejoin:miter;stroke-opacity:1"
             d="m 5.3203447,287.7479 -0.207714,-1.15042 0.2099965,0.31956 0.063912,-0.41086 0.1369543,0.41999 0.1643452,-0.48391 -0.036521,0.50217 0.2465178,-0.31956 -0.3606464,1.12075 c 0,0 -0.045636,0.0377 -0.1129874,0.0331 -0.067351,-0.005 -0.103857,-0.0308 -0.103857,-0.0308 z"
             id="path893"
             inkscape:connector-curvature="0"
             sodipodi:nodetypes="ccccccccczcc" />
          <path
             style="opacity:0.2;fill:#ffffff;fill-opacity:1;stroke:none;stroke-width:0.1769221;stroke-linecap:round;stroke-linejoin:bevel;stroke-miterlimit:4;stroke-dasharray:none;stroke-opacity:1"
             d="m 5.1118717,286.5885 0.1949745,1.07919 c -0.3842819,0.18325 -0.3130365,1.28218 -0.3130363,2.4048 -2e-7,1.22301 0.1848783,2.07235 0.4130768,2.07235 0.0182,0 0.034508,-0.007 0.04969,-0.0173 -0.1812393,-0.20403 -0.3159109,-0.97357 -0.3159107,-2.01702 0,-1.12262 -0.071246,-2.22155 0.3130364,-2.4048 l -0.148714,-0.82364 z m 0.2739031,-0.0913 -0.040638,0.26088 0.1236768,0.18806 0.020346,-0.13148 z m 0.2056939,0.2183 0.061516,0.18888 0.034247,-0.47103 z m 0.067821,0.2088 0.01029,0.031 0.026948,-0.0792 z m 0.1566252,-0.20263 -0.013991,0.19029 0.095254,-0.29576 z"
             id="path890-0"
             inkscape:connector-curvature="0" />
        </g>
      </g>
    </g>
  </g>
</svg>
