<?xml version="1.0" encoding="UTF-8" standalone="no"?>
<!-- Created with Inkscape (http://www.inkscape.org/) -->

<svg
   xmlns:dc="http://purl.org/dc/elements/1.1/"
   xmlns:cc="http://creativecommons.org/ns#"
   xmlns:rdf="http://www.w3.org/1999/02/22-rdf-syntax-ns#"
   xmlns:svg="http://www.w3.org/2000/svg"
   xmlns="http://www.w3.org/2000/svg"
   xmlns:sodipodi="http://sodipodi.sourceforge.net/DTD/sodipodi-0.dtd"
   xmlns:inkscape="http://www.inkscape.org/namespaces/inkscape"
   width="48"
   height="48"
   viewBox="0 0 12.7 12.7"
   version="1.1"
   id="svg1376"
   inkscape:version="0.92.3 (2405546, 2018-03-11)"
   sodipodi:docname="A0783.svg">
  <title
     id="title842">Fil och yoghurt</title>
  <defs
     id="defs1370" />
  <sodipodi:namedview
     id="base"
     pagecolor="#ffffff"
     bordercolor="#666666"
     borderopacity="1.0"
     inkscape:pageopacity="0.0"
     inkscape:pageshadow="2"
     inkscape:zoom="2.0000001"
     inkscape:cx="-127.58074"
     inkscape:cy="17.224402"
     inkscape:document-units="mm"
     inkscape:current-layer="g1127"
     showgrid="true"
     units="px"
     inkscape:window-width="2048"
     inkscape:window-height="1101"
     inkscape:window-x="0"
     inkscape:window-y="0"
     inkscape:window-maximized="1"
     inkscape:snap-global="false">
    <inkscape:grid
       type="xygrid"
       id="grid1944" />
  </sodipodi:namedview>
  <metadata
     id="metadata1373">
    <rdf:RDF>
      <cc:Work
         rdf:about="">
        <dc:format>image/svg+xml</dc:format>
        <dc:type
           rdf:resource="http://purl.org/dc/dcmitype/StillImage" />
        <dc:title>Fil och yoghurt</dc:title>
      </cc:Work>
    </rdf:RDF>
  </metadata>
  <g
     inkscape:label="Layer 1"
     inkscape:groupmode="layer"
     id="layer1"
     transform="translate(0,-284.29998)">
    <g
       id="g907"
       transform="translate(0.03894099,0.66121036)">
      <g
         id="g1276"
         transform="matrix(1.7771756,0,0,1.7771756,-4.6488232,-225.19917)">
        <g
           id="g903"
           transform="matrix(0.97561758,0,0,0.97561758,-6.7939379,6.9134242)">
          <g
             id="g1020"
             transform="translate(0.69727517,1.871493)">
            <path
               inkscape:connector-curvature="0"
               id="rect992-3"
               d="m 4.7893384,285.15483 v 0.48415 l -0.013376,-0.005 -0.9031579,0.98661 0.015702,0.006 v 4.00431 l 1.5751467,0.52544 v 0.0157 l 1.5972463,-0.57662 v -4.00867 l 0.0047,-0.002 -0.0047,-0.003 v -0.008 l -0.0084,0.003 -0.890945,-0.48124 -0.0081,-0.49549 z"
               style="opacity:0.2;fill:#000000;fill-opacity:1;stroke:none;stroke-width:0.42690954;stroke-linecap:round;stroke-linejoin:miter;stroke-miterlimit:4;stroke-dasharray:none;stroke-opacity:1" />
            <rect
               transform="matrix(0.94868329,0.31622778,0,1,0,0)"
               y="285.17065"
               x="4.0994053"
               height="4.0204349"
               width="1.6837537"
               id="rect992"
               style="opacity:1;fill:#e6e6e6;fill-opacity:1;stroke:none;stroke-width:0.4383038;stroke-linecap:round;stroke-linejoin:miter;stroke-miterlimit:4;stroke-dasharray:none;stroke-opacity:1" />
            <rect
               transform="matrix(0.94055386,-0.33964456,0,1,0,0)"
               y="288.98129"
               x="5.8095574"
               height="4.0204349"
               width="1.6983066"
               id="rect992-9"
               style="opacity:1;fill:#d2d2d2;fill-opacity:1;stroke:none;stroke-width:0.44019392;stroke-linecap:round;stroke-linejoin:miter;stroke-miterlimit:4;stroke-dasharray:none;stroke-opacity:1" />
            <path
               sodipodi:nodetypes="ccccc"
               inkscape:connector-curvature="0"
               id="path1009"
               d="m 3.8733499,286.47755 0.9031037,-0.9867 1.3754951,0.46589 -0.6747517,1.07409 z"
               style="fill:#fafafa;fill-opacity:1;stroke:none;stroke-width:0.17748323px;stroke-linecap:butt;stroke-linejoin:miter;stroke-opacity:1" />
            <path
               sodipodi:nodetypes="cccc"
               inkscape:connector-curvature="0"
               id="path1011"
               d="m 6.1519487,285.94756 0.9141964,0.49401 -1.592197,0.58142 z"
               style="fill:#d2d2d2;fill-opacity:1;stroke:none;stroke-width:0.17748323px;stroke-linecap:butt;stroke-linejoin:miter;stroke-opacity:1" />
            <path
               sodipodi:nodetypes="ccccc"
               inkscape:connector-curvature="0"
               id="path1013"
               d="m 4.7897047,285.49913 5e-7,-0.48784 1.3642578,0.4465 0.00827,0.51262 z"
               style="fill:#e6e6e6;fill-opacity:1;stroke:none;stroke-width:0.26458332px;stroke-linecap:butt;stroke-linejoin:miter;stroke-opacity:1" />
          </g>
          <g
             transform="matrix(0.82525523,0,0,0.82525523,0.53911443,51.832051)"
             id="g870">
            <path
               inkscape:connector-curvature="0"
               id="path844-3-6"
               d="m 9.3004207,289.0347 a 1.1448443,0.3816147 0 0 0 -1.1426699,0.3682 h -0.00176 l 7.047e-4,0.006 a 1.1448443,0.3816147 0 0 0 -0.00106,0.007 1.1448443,0.3816147 0 0 0 0.00564,0.0345 l 0.2727187,2.53763 h 0.01797 a 0.88442697,0.29591029 0 0 0 0.8826359,0.27659 0.88442697,0.29591029 0 0 0 0.8815789,-0.27659 h 0.006 l 0.218458,-2.54221 a 1.1448443,0.3816147 0 0 0 0.0046,-0.03 1.1448443,0.3816147 0 0 0 -0.0011,-0.01 l 3.52e-4,-0.004 h -7.05e-4 a 1.1448443,0.3816147 0 0 0 -1.1433758,-0.3682 z"
               style="opacity:0.2;fill:#000000;fill-opacity:1;stroke:none;stroke-width:0.34568352;stroke-linecap:round;stroke-linejoin:miter;stroke-miterlimit:4;stroke-dasharray:none;stroke-opacity:1" />
            <path
               style="opacity:1;fill:#ba00ff;fill-opacity:1;stroke:none;stroke-width:0.34568352;stroke-linecap:round;stroke-linejoin:miter;stroke-miterlimit:4;stroke-dasharray:none;stroke-opacity:1"
               d="m 8.1542284,289.23777 0.2779485,2.58528 h 0.017951 a 0.88442697,0.2959103 0 0 0 0.8824868,0.27666 0.88442697,0.2959103 0 0 0 0.8816173,-0.27666 h 0.0061 l 0.222358,-2.58528 z"
               id="path844-3"
               inkscape:connector-curvature="0" />
            <ellipse
               style="opacity:1;fill:#d76cff;fill-opacity:1;stroke:none;stroke-width:0.44663566;stroke-linecap:round;stroke-linejoin:miter;stroke-miterlimit:4;stroke-dasharray:none;stroke-opacity:1"
               id="path844"
               cx="9.287281"
               cy="289.27365"
               rx="1.1448443"
               ry="0.38161471" />
            <path
               style="fill:#d76cff;stroke:none;stroke-width:0.14887854px;stroke-linecap:butt;stroke-linejoin:miter;stroke-opacity:1"
               d="m 9.411517,289.6522 c 0,0 0.179712,-0.0492 0.2820663,0.0997 0.1122658,0.15067 0.1601918,0.26896 0.5137537,0.15649 0.353562,-0.11247 -0.181969,-0.34485 -0.06101,-0.38207 z"
               id="path865"
               inkscape:connector-curvature="0"
               sodipodi:nodetypes="cczcc" />
          </g>
        </g>
        <g
           id="g1127"
           transform="translate(-0.17064039)">
          <path
             style="opacity:0.17700004;fill:#000000;fill-opacity:1;stroke:none;stroke-width:0.15952465;stroke-linecap:round;stroke-linejoin:bevel;stroke-miterlimit:4;stroke-dasharray:none;stroke-opacity:1"
             d="m 4.3078867,287.03165 c -0.164958,0 -0.297757,0.13621 -0.297757,0.3054 v 0.14317 l -0.148879,0.77246 h 2.233179 l -0.148879,-0.76292 v -3e-4 -0.15241 c 0,-0.16919 -0.1328,-0.3054 -0.297757,-0.3054 z m -0.446636,1.22162 v 4.2757 c -0.0061,0.16908 0.1328,0.30541 0.297757,0.30541 h 1.637664 c 0.164958,0 0.297758,-0.13621 0.297758,-0.30541 v -4.2757 z"
             id="rect823-7"
             inkscape:connector-curvature="0" />
          <path
             style="opacity:1;fill:#ff9900;fill-opacity:1;stroke:none;stroke-width:0.15952465;stroke-linecap:round;stroke-linejoin:bevel;stroke-miterlimit:4;stroke-dasharray:none;stroke-opacity:1"
             d="m 6.0944297,288.10057 v 4.27567 c 0,0.1692 -0.1328,0.30541 -0.297758,0.30541 h -1.637664 c -0.164957,0 -0.303862,-0.13632 -0.297757,-0.30541 v -4.27567 z"
             id="rect823"
             inkscape:connector-curvature="0"
             sodipodi:nodetypes="csssscc" />
          <rect
             style="opacity:1;fill:#ff9900;fill-opacity:1;stroke:none;stroke-width:0.0606286;stroke-linecap:round;stroke-linejoin:bevel;stroke-miterlimit:4;stroke-dasharray:none;stroke-opacity:1"
             id="rect823-6"
             width="1.9354213"
             height="0.76351458"
             x="4.0100322"
             y="286.87894"
             ry="0.29775709"
             rx="0.29775712" />
          <path
             style="opacity:1;fill:#ffab2d;fill-opacity:1;stroke:none;stroke-width:0.07671294;stroke-linecap:round;stroke-linejoin:bevel;stroke-miterlimit:4;stroke-dasharray:none;stroke-opacity:1"
             d="m 4.0100327,287.3275 1.935421,0.009 0.148879,0.7632 h -2.233179 z"
             id="rect823-3"
             inkscape:connector-curvature="0"
             sodipodi:nodetypes="ccccc" />
          <path
             style="opacity:0.2;fill:#ffffff;fill-opacity:1;stroke:none;stroke-width:0.15952465;stroke-linecap:round;stroke-linejoin:bevel;stroke-miterlimit:4;stroke-dasharray:none;stroke-opacity:1"
             d="m 4.3077897,286.87923 c -0.164958,0 -0.297757,0.13623 -0.297757,0.30541 v 0.14317 l -0.148879,0.77246 h 0.02937 l 0.11951,-0.61977 v -0.14315 c 0,-0.16919 0.1328,-0.30541 0.297757,-0.30541 h 1.339907 c 0.164859,0 0.297599,0.13607 0.297757,0.30511 v -0.15241 c 0,-0.16918 -0.132799,-0.30541 -0.297757,-0.30541 z m 1.637664,0.45812 v 0.15241 2.9e-4 l 0.119219,0.61022 h 0.02966 z m -2.0843,0.76351 v 0.15211 l 0.02937,-0.15211 z m 0,0.15211 v 6e-4 h 2.233178 v -6e-4 z m 2.233178,0 v -0.15211 h -0.02966 z"
             id="rect823-7-5"
             inkscape:connector-curvature="0" />
          <path
             style="opacity:1;fill:#fff1d7;fill-opacity:1;stroke:none;stroke-width:0.15952466;stroke-linecap:round;stroke-linejoin:bevel;stroke-miterlimit:4;stroke-dasharray:none;stroke-opacity:1"
             d="m 6.0943317,288.09819 v 1.9166 c 0,0 -0.422126,-0.0306 -1.000277,0.56168 -0.578151,0.59227 -1.239006,0.0888 -1.232901,-0.009 v -2.46928 z"
             id="rect823-36"
             inkscape:connector-curvature="0"
             sodipodi:nodetypes="cczscc" />
          <path
             style="opacity:0.2;fill:#000000;fill-opacity:1;stroke:none;stroke-width:0.16318028;stroke-linecap:round;stroke-linejoin:bevel;stroke-miterlimit:4;stroke-dasharray:none;stroke-opacity:1"
             d="m 5.4296697,289.57596 c 0,0.24617 -0.19956,0.44573 -0.445729,0.44573 -0.246169,0 -0.445728,-0.19956 -0.445729,-0.44573 1e-6,-0.24616 0.445729,-0.75175 0.445729,-0.75175 0,0 0.445729,0.50559 0.445729,0.75175 z"
             id="path853-7"
             inkscape:connector-curvature="0"
             sodipodi:nodetypes="csccc" />
          <path
             style="opacity:1;fill:#ffffff;fill-opacity:1;stroke:none;stroke-width:0.16318028;stroke-linecap:round;stroke-linejoin:bevel;stroke-miterlimit:4;stroke-dasharray:none;stroke-opacity:1"
             d="m 5.4345677,289.39828 c 0,0.24617 -0.19956,0.44573 -0.445729,0.44573 -0.246169,0 -0.445728,-0.19956 -0.445729,-0.44573 1e-6,-0.24616 0.445729,-0.75175 0.445729,-0.75175 0,0 0.445729,0.50559 0.445729,0.75175 z"
             id="path853"
             inkscape:connector-curvature="0"
             sodipodi:nodetypes="csccc" />
          <path
             inkscape:connector-curvature="0"
             id="rect1076-6"
             d="m 6.7299696,289.71549 c -0.1649574,0 -0.2977571,0.1328 -0.2977571,0.29775 0,0.11542 0.065835,0.2137 0.161382,0.26316 l 0.3105514,2.27534 c 0.022305,0.16345 0.1327997,0.29776 0.2977571,0.29776 h 0.923803 c 0.164957,0 0.2820071,-0.13355 0.2977571,-0.29776 l 0.2175024,-2.26894 c 0.1021746,-0.0471 0.1733038,-0.14929 0.1733038,-0.26956 0,-0.16495 -0.1327996,-0.29775 -0.2977571,-0.29775 z"
             style="opacity:0.2;fill:#000000;fill-opacity:1;stroke:none;stroke-width:0.16318028;stroke-linecap:round;stroke-linejoin:bevel;stroke-miterlimit:4;stroke-dasharray:none;stroke-opacity:1" />
          <path
             sodipodi:nodetypes="sssssssss"
             inkscape:connector-curvature="0"
             id="rect1076"
             d="m 6.8530931,289.59091 h 1.5099465 c 0.1649574,0 0.3135038,0.13355 0.297757,0.29776 l -0.2419277,2.52281 c -0.015747,0.16421 -0.1327996,0.29776 -0.297757,0.29776 H 7.1973748 c -0.1649574,0 -0.2754522,-0.13431 -0.2977571,-0.29776 L 6.555336,289.88867 c -0.022305,-0.16345 0.1327997,-0.29776 0.2977571,-0.29776 z"
             style="opacity:1;fill:#d76cff;fill-opacity:1;stroke:none;stroke-width:0.16318028;stroke-linecap:round;stroke-linejoin:bevel;stroke-miterlimit:4;stroke-dasharray:none;stroke-opacity:1" />
          <rect
             ry="0.29775709"
             rx="0.29775709"
             y="289.69131"
             x="6.4229078"
             height="0.59551418"
             width="2.382057"
             id="rect1079-6"
             style="opacity:0.2;fill:#000000;fill-opacity:1;stroke:none;stroke-width:0.16318029;stroke-linecap:round;stroke-linejoin:bevel;stroke-miterlimit:4;stroke-dasharray:none;stroke-opacity:1" />
          <rect
             ry="0.29775709"
             rx="0.29775709"
             y="289.57504"
             x="6.4275608"
             height="0.59551418"
             width="2.382057"
             id="rect1079"
             style="opacity:1;fill:#e191ff;fill-opacity:1;stroke:none;stroke-width:0.16318029;stroke-linecap:round;stroke-linejoin:bevel;stroke-miterlimit:4;stroke-dasharray:none;stroke-opacity:1" />
        </g>
      </g>
    </g>
  </g>
</svg>
