<?xml version="1.0" encoding="UTF-8" standalone="no"?>
<!-- Created with Inkscape (http://www.inkscape.org/) -->

<svg
   xmlns:dc="http://purl.org/dc/elements/1.1/"
   xmlns:cc="http://creativecommons.org/ns#"
   xmlns:rdf="http://www.w3.org/1999/02/22-rdf-syntax-ns#"
   xmlns:svg="http://www.w3.org/2000/svg"
   xmlns="http://www.w3.org/2000/svg"
   xmlns:sodipodi="http://sodipodi.sourceforge.net/DTD/sodipodi-0.dtd"
   xmlns:inkscape="http://www.inkscape.org/namespaces/inkscape"
   width="48"
   height="48"
   viewBox="0 0 12.7 12.7"
   version="1.1"
   id="svg1376"
   inkscape:version="0.92.3 (2405546, 2018-03-11)"
   sodipodi:docname="A0780.svg">
  <title
     id="title834">Mjölk</title>
  <defs
     id="defs1370" />
  <sodipodi:namedview
     id="base"
     pagecolor="#ffffff"
     bordercolor="#666666"
     borderopacity="1.0"
     inkscape:pageopacity="0.0"
     inkscape:pageshadow="2"
     inkscape:zoom="7.9999996"
     inkscape:cx="32.041291"
     inkscape:cy="20.818194"
     inkscape:document-units="mm"
     inkscape:current-layer="g1020"
     showgrid="true"
     units="px"
     inkscape:window-width="2048"
     inkscape:window-height="1101"
     inkscape:window-x="0"
     inkscape:window-y="0"
     inkscape:window-maximized="1"
     inkscape:snap-global="false">
    <inkscape:grid
       type="xygrid"
       id="grid1944" />
  </sodipodi:namedview>
  <metadata
     id="metadata1373">
    <rdf:RDF>
      <cc:Work
         rdf:about="">
        <dc:format>image/svg+xml</dc:format>
        <dc:type
           rdf:resource="http://purl.org/dc/dcmitype/StillImage" />
        <dc:title>Mjölk</dc:title>
      </cc:Work>
    </rdf:RDF>
  </metadata>
  <g
     inkscape:label="Layer 1"
     inkscape:groupmode="layer"
     id="layer1"
     transform="translate(0,-284.29998)">
    <g
       id="g907"
       transform="translate(0.03894099,0.66121036)">
      <g
         id="g1276"
         transform="matrix(1.7771756,0,0,1.7771756,-4.6488232,-225.19917)">
        <g
           transform="translate(0.69727517,1.871493)"
           id="g1020">
          <path
             style="opacity:0.2;fill:#000000;fill-opacity:1;stroke:none;stroke-width:0.42690954;stroke-linecap:round;stroke-linejoin:miter;stroke-miterlimit:4;stroke-dasharray:none;stroke-opacity:1"
             d="m -1.2112246,284.90481 v 0.48415 l -0.013376,-0.005 -0.9031579,0.98661 0.015702,0.006 v 4.00431 l 1.5751467,0.52544 v 0.0157 l 1.5972463,-0.57662 v -4.00867 l 0.0047,-0.002 -0.0047,-0.003 v -0.008 l -0.0084,0.003 -0.890945,-0.48124 -0.0081,-0.49549 z"
             id="rect992-3"
             inkscape:connector-curvature="0" />
          <rect
             style="opacity:1;fill:#0084c8;fill-opacity:1;stroke:none;stroke-width:0.4383038;stroke-linecap:round;stroke-linejoin:miter;stroke-miterlimit:4;stroke-dasharray:none;stroke-opacity:1"
             id="rect992"
             width="1.6837537"
             height="4.0204349"
             x="-2.2257435"
             y="286.92081"
             transform="matrix(0.94868329,0.31622778,0,1,0,0)" />
          <rect
             style="opacity:1;fill:#005c94;fill-opacity:1;stroke:none;stroke-width:0.44019392;stroke-linecap:round;stroke-linejoin:miter;stroke-miterlimit:4;stroke-dasharray:none;stroke-opacity:1"
             id="rect992-9"
             width="1.6983066"
             height="4.0204349"
             x="-0.57026112"
             y="286.56439"
             transform="matrix(0.94055386,-0.33964456,0,1,0,0)" />
          <path
             style="fill:#009ae9;fill-opacity:1;stroke:none;stroke-width:0.17748323px;stroke-linecap:butt;stroke-linejoin:miter;stroke-opacity:1"
             d="m -2.1272131,286.22753 0.9031037,-0.9867 1.3754951,0.46589 -0.6747517,1.07409 z"
             id="path1009"
             inkscape:connector-curvature="0"
             sodipodi:nodetypes="ccccc" />
          <path
             style="fill:#005c94;fill-opacity:1;stroke:none;stroke-width:0.17748323px;stroke-linecap:butt;stroke-linejoin:miter;stroke-opacity:1"
             d="m 0.1513857,285.69754 0.9141964,0.49401 -1.592197,0.58142 z"
             id="path1011"
             inkscape:connector-curvature="0"
             sodipodi:nodetypes="cccc" />
          <path
             style="fill:#0084c8;fill-opacity:1;stroke:none;stroke-width:0.26458332px;stroke-linecap:butt;stroke-linejoin:miter;stroke-opacity:1"
             d="m -1.2108583,285.24911 5e-7,-0.48784 1.3642578,0.4465 0.00827,0.51262 z"
             id="path1013"
             inkscape:connector-curvature="0"
             sodipodi:nodetypes="ccccc" />
          <path
             style="opacity:0.17700004;fill:#000000;fill-opacity:1;stroke:none;stroke-width:0.15952465;stroke-linecap:round;stroke-linejoin:bevel;stroke-miterlimit:4;stroke-dasharray:none;stroke-opacity:1"
             d="m 4.7998911,285.19475 c -0.1649575,0 -0.2977571,0.13621 -0.2977571,0.3054 v 0.14317 l -0.1488786,0.77246 h 2.2331783 l -0.1488786,-0.76292 v -3e-4 -0.15241 c 0,-0.16919 -0.1327997,-0.3054 -0.2977571,-0.3054 z m -0.4466357,1.22162 v 4.2757 c -0.00611,0.16908 0.1327997,0.30541 0.2977571,0.30541 h 1.6376641 c 0.1649574,0 0.2977571,-0.13621 0.2977571,-0.30541 v -4.2757 z"
             id="rect823-7"
             inkscape:connector-curvature="0" />
          <path
             style="opacity:1;fill:#0084c8;fill-opacity:1;stroke:none;stroke-width:0.15952465;stroke-linecap:round;stroke-linejoin:bevel;stroke-miterlimit:4;stroke-dasharray:none;stroke-opacity:1"
             d="m 6.5864337,286.26367 v 4.27567 c 0,0.1692 -0.1327997,0.30541 -0.2977572,0.30541 H 4.6510124 c -0.1649575,0 -0.3038625,-0.13632 -0.2977571,-0.30541 l 1e-7,-4.27567 z"
             id="rect823"
             inkscape:connector-curvature="0"
             sodipodi:nodetypes="csssscc" />
          <rect
             style="opacity:1;fill:#0084c8;fill-opacity:1;stroke:none;stroke-width:0.0606286;stroke-linecap:round;stroke-linejoin:bevel;stroke-miterlimit:4;stroke-dasharray:none;stroke-opacity:1"
             id="rect823-6"
             width="1.9354213"
             height="0.76351458"
             x="4.502037"
             y="285.04205"
             ry="0.29775709"
             rx="0.29775712" />
          <path
             style="opacity:1;fill:#009ef0;fill-opacity:1;stroke:none;stroke-width:0.07671294;stroke-linecap:round;stroke-linejoin:bevel;stroke-miterlimit:4;stroke-dasharray:none;stroke-opacity:1"
             d="m 4.5020369,285.4906 1.9354213,0.009 0.1488785,0.7632 H 4.3531583 Z"
             id="rect823-3"
             inkscape:connector-curvature="0"
             sodipodi:nodetypes="ccccc" />
          <rect
             style="fill:#3b478c;stroke-width:0.14887856"
             width="5.955142"
             height="5.955142"
             x="-290.84866"
             y="-15.444685"
             rx="0.29775712"
             ry="0.29775712"
             transform="matrix(0,-1,-1,0,0,0)"
             id="rect2" />
          <path
             inkscape:connector-curvature="0"
             style="opacity:0.1;fill:#ffffff;stroke-width:0.14887856"
             d="m 9.7873,284.89349 c -0.1649574,0 -0.2977571,0.1328 -0.2977571,0.29776 v 0.14888 c 0,-0.16496 0.1327997,-0.29776 0.2977571,-0.29776 h 5.359628 c 0.164957,0 0.297757,0.1328 0.297757,0.29776 v -0.14888 c 0,-0.16496 -0.1328,-0.29776 -0.297757,-0.29776 z"
             id="path4" />
          <path
             inkscape:connector-curvature="0"
             style="opacity:0.2;stroke-width:0.14887856"
             d="m 9.4895429,290.55088 v 0.14887 c 0,0.16496 0.1327997,0.29776 0.2977571,0.29776 h 5.359628 c 0.164957,0 0.297757,-0.1328 0.297757,-0.29776 v -0.14887 c 0,0.16495 -0.1328,0.29775 -0.297757,0.29775 H 9.7873 c -0.1649574,0 -0.2977571,-0.1328 -0.2977571,-0.29775 z"
             id="path6" />
          <path
             inkscape:connector-curvature="0"
             style="opacity:0.2;stroke-width:0.14887856"
             d="m 10.531693,286.54336 c 0,0 0.451816,-0.0122 0.82376,-0.0122 0.516162,0 1.111676,0.14888 1.111676,1.04215 0,0.89328 -0.595514,1.04215 -1.111646,1.0391 -0.114219,0.005 -0.228246,0.006 -0.228246,0.006 v 0.8903 h -0.595514 z m 0.595484,1.62427 c 0.0656,0.007 0.115033,0.003 0.212271,0.002 0.323811,-0.004 0.532092,-0.29016 0.532092,-0.59655 0,-0.27531 -0.17316,-0.5838 -0.484123,-0.59552 -0.123937,-0.005 -0.260284,0 -0.260284,0 z"
             id="path8" />
          <g
             style="opacity:0.2"
             transform="matrix(0.02505775,0,0,0.0252364,8.7019456,284.34338)"
             id="g12">
            <path
               inkscape:connector-curvature="0"
               d="m 162.15,175.18 c 5.109,3.135 14.876,11.799 23.094,11.799 8.396,0 15.525,-4.236 15.525,-8.849 0,-4.619 -2.8343,-10.288 -13.241,-13.796 -18.439,-6.279 -25.559,-13.795 -25.375,-24.315 0,-16.991 14.238,-29.731 36.328,-29.731 10.407,0 17.61,3.1313 23.084,5.8993 v 17.698 c -4.019,-2.218 -14.504,-5.8993 -22.17,-5.8993 -6.758,0 -13.479,4.463 -13.479,9.076 0,5.9349 6.3605,6.464 17.313,10.344 16.976,5.908 24.096,14.584 24.277,27.879 0,16.805 -12.954,30.168 -38.701,29.357 -8.835,-0.278 -19.901,-2.1752 -26.656,-5.8642 -1.9e-4,-6.7093 -1.4e-4,-16.888 0.001,-23.597 z"
               id="path10" />
          </g>
          <g
             transform="matrix(0.14887855,0,0,0.14887855,8.8940287,284.29798)"
             style="fill:#219fd1"
             id="g20">
            <path
               inkscape:connector-curvature="0"
               d="m 11,14.082 c 0,0 3.0348,-0.08214 5.5331,-0.08214 3.467,0 7.467,1 7.467,7 0,6 -4,7 -7.4668,6.9795 -0.76719,0.03308 -1.5331,0.04099 -1.5331,0.04099 v 5.98 h -4 z m 3.9998,10.91 c 0.44064,0.04411 0.77266,0.02288 1.4258,0.01481 2.175,-0.026 3.574,-1.949 3.574,-4.007 0,-1.8492 -1.1631,-3.9213 -3.2518,-4 -0.83247,-0.03128 -1.7483,0 -1.7483,0 z"
               id="path14" />
            <g
               transform="matrix(0.16831,0,0,0.16951,-1.2902,-0.69505)"
               id="g18">
              <path
                 inkscape:connector-curvature="0"
                 d="m 162.15,175.18 c 5.109,3.135 14.876,11.799 23.094,11.799 8.396,0 15.525,-4.236 15.525,-8.849 0,-4.619 -2.8343,-10.288 -13.241,-13.796 -18.439,-6.279 -25.559,-13.795 -25.375,-24.315 0,-16.991 14.238,-29.731 36.328,-29.731 10.407,0 17.61,3.1313 23.084,5.8993 v 17.698 c -4.019,-2.218 -14.504,-5.8993 -22.17,-5.8993 -6.758,0 -13.479,4.463 -13.479,9.076 0,5.9349 6.3605,6.464 17.313,10.344 16.976,5.908 24.096,14.584 24.277,27.879 0,16.805 -12.954,30.168 -38.701,29.357 -8.835,-0.278 -19.901,-2.1752 -26.656,-5.8642 -1.9e-4,-6.7093 -1.4e-4,-16.888 0.001,-23.597 z"
                 id="path16" />
            </g>
          </g>
          <path
             style="opacity:0.2;fill:#ffffff;fill-opacity:1;stroke:none;stroke-width:0.15952465;stroke-linecap:round;stroke-linejoin:bevel;stroke-miterlimit:4;stroke-dasharray:none;stroke-opacity:1"
             d="m 4.799794,285.04233 c -0.1649575,0 -0.2977571,0.13623 -0.2977571,0.30541 v 0.14317 l -0.1488785,0.77246 h 0.029369 l 0.1195099,-0.61977 v -0.14315 c 0,-0.16919 0.1327996,-0.30541 0.2977571,-0.30541 h 1.339907 c 0.1648587,0 0.2975985,0.13607 0.2977571,0.30511 v -0.15241 c 0,-0.16918 -0.1327997,-0.30541 -0.2977571,-0.30541 z m 1.6376641,0.45812 v 0.15241 2.9e-4 l 0.1192191,0.61022 h 0.029659 z m -2.0842997,0.76351 v 0.15211 l 0.029369,-0.15211 z m 0,0.15211 v 6e-4 h 2.2331782 v -6e-4 z m 2.2331782,0 v -0.15211 h -0.029659 z"
             id="rect823-7-5"
             inkscape:connector-curvature="0" />
          <path
             style="opacity:1;fill:#c2eaff;fill-opacity:1;stroke:none;stroke-width:0.15952466;stroke-linecap:round;stroke-linejoin:bevel;stroke-miterlimit:4;stroke-dasharray:none;stroke-opacity:1"
             d="m 6.5863366,286.26129 v 1.9166 c 0,0 -0.4221268,-0.0306 -1.0002778,0.56168 -0.578151,0.59227 -1.239006,0.0888 -1.2329006,-0.009 l 10e-8,-2.46928 z"
             id="rect823-36"
             inkscape:connector-curvature="0"
             sodipodi:nodetypes="cczscc" />
          <path
             style="opacity:0.2;fill:#000000;fill-opacity:1;stroke:none;stroke-width:0.16318028;stroke-linecap:round;stroke-linejoin:bevel;stroke-miterlimit:4;stroke-dasharray:none;stroke-opacity:1"
             d="m 5.9216745,287.73906 c -5e-7,0.24617 -0.19956,0.44573 -0.4457289,0.44573 -0.246169,0 -0.4457285,-0.19956 -0.445729,-0.44573 5e-7,-0.24616 0.445729,-0.75175 0.445729,-0.75175 0,0 0.4457284,0.50559 0.4457289,0.75175 z"
             id="path853-7"
             inkscape:connector-curvature="0"
             sodipodi:nodetypes="csccc" />
          <path
             style="opacity:1;fill:#ffffff;fill-opacity:1;stroke:none;stroke-width:0.16318028;stroke-linecap:round;stroke-linejoin:bevel;stroke-miterlimit:4;stroke-dasharray:none;stroke-opacity:1"
             d="m 5.9265725,287.56138 c -5e-7,0.24617 -0.19956,0.44573 -0.4457289,0.44573 -0.246169,0 -0.4457285,-0.19956 -0.445729,-0.44573 5e-7,-0.24616 0.445729,-0.75175 0.445729,-0.75175 0,0 0.4457284,0.50559 0.4457289,0.75175 z"
             id="path853"
             inkscape:connector-curvature="0"
             sodipodi:nodetypes="csccc" />
        </g>
      </g>
    </g>
  </g>
</svg>
