<?xml version="1.0" encoding="UTF-8" standalone="no"?>
<!-- Created with Inkscape (http://www.inkscape.org/) -->

<svg
   xmlns:dc="http://purl.org/dc/elements/1.1/"
   xmlns:cc="http://creativecommons.org/ns#"
   xmlns:rdf="http://www.w3.org/1999/02/22-rdf-syntax-ns#"
   xmlns:svg="http://www.w3.org/2000/svg"
   xmlns="http://www.w3.org/2000/svg"
   xmlns:sodipodi="http://sodipodi.sourceforge.net/DTD/sodipodi-0.dtd"
   xmlns:inkscape="http://www.inkscape.org/namespaces/inkscape"
   width="48"
   height="48"
   viewBox="0 0 12.7 12.7"
   version="1.1"
   id="svg1376"
   inkscape:version="0.92.3 (2405546, 2018-03-11)"
   sodipodi:docname="A0795.svg">
  <title
     id="title825">Fågel</title>
  <defs
     id="defs1370" />
  <sodipodi:namedview
     id="base"
     pagecolor="#ffffff"
     bordercolor="#666666"
     borderopacity="1.0"
     inkscape:pageopacity="0.0"
     inkscape:pageshadow="2"
     inkscape:zoom="5.6568542"
     inkscape:cx="3.8351409"
     inkscape:cy="-7.7518183"
     inkscape:document-units="mm"
     inkscape:current-layer="g892"
     showgrid="true"
     units="px"
     inkscape:window-width="1022"
     inkscape:window-height="1096"
     inkscape:window-x="0"
     inkscape:window-y="0"
     inkscape:window-maximized="0"
     inkscape:snap-global="false">
    <inkscape:grid
       type="xygrid"
       id="grid1944" />
  </sodipodi:namedview>
  <metadata
     id="metadata1373">
    <rdf:RDF>
      <cc:Work
         rdf:about="">
        <dc:format>image/svg+xml</dc:format>
        <dc:type
           rdf:resource="http://purl.org/dc/dcmitype/StillImage" />
        <dc:title>Fågel</dc:title>
      </cc:Work>
    </rdf:RDF>
  </metadata>
  <g
     inkscape:label="Layer 1"
     inkscape:groupmode="layer"
     id="layer1"
     transform="translate(0,-284.29998)">
    <g
       id="g886"
       transform="translate(-0.52422552,-1.6563729)">
      <g
         id="g892"
         transform="matrix(1.6842981,0,0,1.6842981,-7.4866511,-199.0251)"
         style="stroke-width:0.59371912">
        <path
           style="opacity:0.2;fill:#000000;fill-opacity:1;stroke:none;stroke-width:0.15733556;stroke-linecap:butt;stroke-linejoin:miter;stroke-miterlimit:4;stroke-dasharray:none;stroke-opacity:1"
           d="m 9.3831988,290.81917 0.5781219,-0.55196 c 0,0 -0.5436306,-0.36197 -0.122094,-0.6407 0.4215393,-0.27875 0.6017303,0.54515 0.6017303,0.54515 0,0 0.900789,0.27045 0.559277,0.55934 -0.341513,0.28887 -0.703166,-0.22587 -0.703166,-0.22587 l -0.7601023,0.70476"
           id="path833-6"
           inkscape:connector-curvature="0" />
        <path
           style="fill:#fae5d6;fill-opacity:1;stroke:none;stroke-width:0.15733556;stroke-linecap:butt;stroke-linejoin:miter;stroke-miterlimit:4;stroke-dasharray:none;stroke-opacity:1"
           d="m 9.3890265,290.57085 0.5781214,-0.55196 c 0,0 -0.5436301,-0.36197 -0.1220935,-0.6407 0.4215386,-0.27875 0.6017296,0.54515 0.6017296,0.54515 0,0 0.900789,0.27045 0.559277,0.55934 -0.341513,0.28887 -0.703166,-0.22587 -0.703166,-0.22587 l -0.7601012,0.70476"
           id="path833"
           inkscape:connector-curvature="0" />
        <path
           style="opacity:0.2;fill:#000000;fill-opacity:1;stroke:none;stroke-width:0.47126454;stroke-linecap:round;stroke-linejoin:bevel;stroke-miterlimit:4;stroke-dasharray:none;stroke-opacity:1"
           d="m 8.9127868,292.43497 c -0.2408473,0.84604 -0.5197127,1.67018 -1.405599,1.67018 -0.8858863,0 -1.5378927,-0.652 -1.5378908,-1.53789 0.3968731,-1.05125 1.2703511,-0.90951 2.1332033,-1.33946 0.8628521,-0.42994 1.1634747,-0.96586 1.6303207,-0.42315 0.466845,0.54271 -0.579187,0.78428 -0.8200342,1.63032 z"
           id="path830-3"
           inkscape:connector-curvature="0"
           sodipodi:nodetypes="zsczzz" />
        <path
           style="opacity:1;fill:#e17424;fill-opacity:1;stroke:none;stroke-width:0.47126454;stroke-linecap:round;stroke-linejoin:bevel;stroke-miterlimit:4;stroke-dasharray:none;stroke-opacity:1"
           d="m 8.929688,292.15479 c -0.2408475,0.84604 -0.5197128,1.67018 -1.4055991,1.67018 -0.8858863,0 -1.5378927,-0.652 -1.5378908,-1.53789 0.3968731,-1.05125 1.2703511,-0.90951 2.1332033,-1.33946 0.8628522,-0.42994 1.1634748,-0.96586 1.6303201,-0.42315 0.4668455,0.54271 -0.5791861,0.78428 -0.8200335,1.63032 z"
           id="path830"
           inkscape:connector-curvature="0"
           sodipodi:nodetypes="zsczzz" />
        <path
           style="opacity:0.2;fill:#ffffff;fill-opacity:1;stroke:none;stroke-width:0.47126457;stroke-linecap:round;stroke-linejoin:bevel;stroke-miterlimit:4;stroke-dasharray:none;stroke-opacity:1"
           d="m 9.3343788,290.28419 c -0.2984397,0.0108 -0.6257567,0.3567 -1.2189675,0.65229 -0.862852,0.42995 -1.7363968,0.28829 -2.1332699,1.33954 -2e-7,0.0483 0.00264,0.0955 0.00644,0.14236 0.4025842,-1.01543 1.2660237,-0.88314 2.11977,-1.30855 0.8628522,-0.42994 1.1635578,-0.96581 1.6304039,-0.4231 0.05887,0.0684 0.09351,0.13201 0.108918,0.19268 0.03687,-0.11265 0.01507,-0.22974 -0.102168,-0.36603 -0.1458898,-0.16959 -0.2754751,-0.23411 -0.4111296,-0.22919 z"
           id="path830-5"
           inkscape:connector-curvature="0" />
      </g>
    </g>
  </g>
</svg>
