<?xml version="1.0" encoding="UTF-8" standalone="no"?>
<!-- Created with Inkscape (http://www.inkscape.org/) -->

<svg
   xmlns:dc="http://purl.org/dc/elements/1.1/"
   xmlns:cc="http://creativecommons.org/ns#"
   xmlns:rdf="http://www.w3.org/1999/02/22-rdf-syntax-ns#"
   xmlns:svg="http://www.w3.org/2000/svg"
   xmlns="http://www.w3.org/2000/svg"
   xmlns:sodipodi="http://sodipodi.sourceforge.net/DTD/sodipodi-0.dtd"
   xmlns:inkscape="http://www.inkscape.org/namespaces/inkscape"
   width="48"
   height="48"
   viewBox="0 0 12.7 12.7"
   version="1.1"
   id="svg1376"
   inkscape:version="0.92.3 (2405546, 2018-03-11)"
   sodipodi:docname="A0847.svg">
  <title
     id="title824">Kötträtt</title>
  <defs
     id="defs1370">
    <inkscape:perspective
       sodipodi:type="inkscape:persp3d"
       inkscape:vp_x="0 : 6.35 : 1"
       inkscape:vp_y="0 : 1000 : 0"
       inkscape:vp_z="12.7 : 6.35 : 1"
       inkscape:persp3d-origin="6.35 : 4.2333333 : 1"
       id="perspective824" />
  </defs>
  <sodipodi:namedview
     id="base"
     pagecolor="#ffffff"
     bordercolor="#666666"
     borderopacity="1.0"
     inkscape:pageopacity="0.0"
     inkscape:pageshadow="2"
     inkscape:zoom="11.313708"
     inkscape:cx="26.644916"
     inkscape:cy="26.318787"
     inkscape:document-units="mm"
     inkscape:current-layer="layer1"
     showgrid="true"
     units="px"
     inkscape:window-width="2048"
     inkscape:window-height="1101"
     inkscape:window-x="0"
     inkscape:window-y="0"
     inkscape:window-maximized="1"
     inkscape:snap-global="false"
     showguides="false">
    <inkscape:grid
       type="xygrid"
       id="grid1944" />
  </sodipodi:namedview>
  <metadata
     id="metadata1373">
    <rdf:RDF>
      <cc:Work
         rdf:about="">
        <dc:format>image/svg+xml</dc:format>
        <dc:type
           rdf:resource="http://purl.org/dc/dcmitype/StillImage" />
        <dc:title>Kötträtt</dc:title>
      </cc:Work>
    </rdf:RDF>
  </metadata>
  <g
     inkscape:label="Layer 1"
     inkscape:groupmode="layer"
     id="layer1"
     transform="translate(0,-284.29998)">
    <path
       style="opacity:1;fill:#e2e9eb;fill-opacity:1;stroke:none;stroke-width:0.52916664;stroke-linecap:round;stroke-linejoin:bevel;stroke-miterlimit:4;stroke-dasharray:none;stroke-opacity:1"
       d="m 3.8733768,286.14883 h 4.8349601 c 0.2931583,0 0.5549987,0.23715 0.5291666,0.52917 l -0.7483547,8.4598 c -0.025832,0.29202 -0.2360397,0.53346 -0.5291666,0.52917 L 4.762048,295.6202 c -0.2931269,-0.004 -0.4983714,-0.23763 -0.5291667,-0.52917 L 3.3442101,286.678 c -0.030795,-0.29154 0.2360084,-0.52917 0.5291667,-0.52917 z"
       id="rect829"
       inkscape:connector-curvature="0"
       sodipodi:nodetypes="sssssssss" />
    <path
       style="opacity:1;fill:#ffc878;fill-opacity:1;stroke:none;stroke-width:0.38474518;stroke-linecap:round;stroke-linejoin:bevel;stroke-miterlimit:4;stroke-dasharray:none;stroke-opacity:1"
       d="m 4.6057257,288.91706 3.4560112,0.0496 c 0.235593,0.003 0.4375847,0.15526 0.4253026,0.34806 l -0.3534217,5.54783 c -0.012283,0.19281 -0.1897103,0.35088 -0.4253027,0.34806 l -2.5702468,-0.0308 c -0.2355922,-0.003 -0.4068961,-0.15559 -0.4253023,-0.34806 l -0.5323427,-5.56668 c -0.018406,-0.19248 0.1731491,-0.34863 0.4087659,-0.34806 z"
       id="rect829-3"
       inkscape:connector-curvature="0"
       sodipodi:nodetypes="cssssssssc" />
    <path
       style="opacity:1;fill:#ffeed4;fill-opacity:1;stroke:none;stroke-width:0.52916664;stroke-linecap:round;stroke-linejoin:bevel;stroke-miterlimit:4;stroke-dasharray:none;stroke-opacity:1"
       d="m 4.3738933,286.9541 c 0,0 0.096447,-0.0459 0.282647,-0.0838 0.1861997,-0.0379 0.4621519,-0.0679 0.8211618,-0.0361 0.35901,0.0318 1.0690442,0.15892 1.6479848,0.17892 0.5789407,0.0199 1.0267877,-0.0673 1.0267877,-0.0673 0.2918473,-0.0277 0.5519186,0.2369 0.5291666,0.52917 l -0.107487,1.3808 c -0.022752,0.29227 -0.2364386,0.54505 -0.5291666,0.52917 L 4.5392579,289.1948 c -0.292728,-0.0159 -0.4885605,-0.23884 -0.5291667,-0.52917 l -0.1653646,-1.18236 c -0.040606,-0.29033 0.236009,-0.52853 0.5291667,-0.52917 z"
       id="rect847"
       inkscape:connector-curvature="0"
       sodipodi:nodetypes="ssssssssssss" />
  </g>
</svg>
